<?xml version="1.0" encoding="UTF-8" standalone="no"?>
<!-- Created with Inkscape (http://www.inkscape.org/) -->

<svg
   version="1.1"
   id="svg1"
   width="679.14001"
   height="718.93335"
   viewBox="0 0 679.14001 718.93335"
   sodipodi:docname="Logo Standard_Final.ai"
   xmlns:inkscape="http://www.inkscape.org/namespaces/inkscape"
   xmlns:sodipodi="http://sodipodi.sourceforge.net/DTD/sodipodi-0.dtd"
   xmlns="http://www.w3.org/2000/svg"
   xmlns:svg="http://www.w3.org/2000/svg">
  <defs
     id="defs1">
    <clipPath
       clipPathUnits="userSpaceOnUse"
       id="clipPath3">
      <path
         d="M 0,539.2 H 509.355 V 0 H 0 Z"
         transform="translate(-104.2258,-171.3923)"
         id="path3" />
    </clipPath>
    <clipPath
       clipPathUnits="userSpaceOnUse"
       id="clipPath5">
      <path
         d="M 0,539.2 H 509.355 V 0 H 0 Z"
         transform="translate(-137.02941,-189.45991)"
         id="path5" />
    </clipPath>
    <clipPath
       clipPathUnits="userSpaceOnUse"
       id="clipPath7">
      <path
         d="M 0,539.2 H 509.355 V 0 H 0 Z"
         transform="translate(-181.4215,-159.778)"
         id="path7" />
    </clipPath>
    <clipPath
       clipPathUnits="userSpaceOnUse"
       id="clipPath9">
      <path
         d="M 0,539.2 H 509.355 V 0 H 0 Z"
         transform="translate(-204.67561,-159.3328)"
         id="path9" />
    </clipPath>
    <clipPath
       clipPathUnits="userSpaceOnUse"
       id="clipPath11">
      <path
         d="M 0,539.2 H 509.355 V 0 H 0 Z"
         id="path11" />
    </clipPath>
    <clipPath
       clipPathUnits="userSpaceOnUse"
       id="clipPath13">
      <path
         d="M 0,539.2 H 509.355 V 0 H 0 Z"
         transform="translate(-257.73811,-187.72381)"
         id="path13" />
    </clipPath>
    <clipPath
       clipPathUnits="userSpaceOnUse"
       id="clipPath15">
      <path
         d="M 0,539.2 H 509.355 V 0 H 0 Z"
         transform="translate(-313.51741,-159.3328)"
         id="path15" />
    </clipPath>
    <clipPath
       clipPathUnits="userSpaceOnUse"
       id="clipPath17">
      <path
         d="M 0,539.2 H 509.355 V 0 H 0 Z"
         id="path17" />
    </clipPath>
    <clipPath
       clipPathUnits="userSpaceOnUse"
       id="clipPath19">
      <path
         d="M 0,539.2 H 509.355 V 0 H 0 Z"
         transform="translate(-372.17361,-189.45991)"
         id="path19" />
    </clipPath>
    <clipPath
       clipPathUnits="userSpaceOnUse"
       id="clipPath21">
      <path
         d="M 0,539.2 H 509.355 V 0 H 0 Z"
         transform="translate(-392.91051,-159.778)"
         id="path21" />
    </clipPath>
    <clipPath
       clipPathUnits="userSpaceOnUse"
       id="clipPath23">
      <path
         d="M 0,539.2 H 509.355 V 0 H 0 Z"
         transform="translate(-258.79551,-338.64871)"
         id="path23" />
    </clipPath>
    <clipPath
       clipPathUnits="userSpaceOnUse"
       id="clipPath25">
      <path
         d="M 0,539.2 H 509.355 V 0 H 0 Z"
         transform="translate(-245.77251,-259.81231)"
         id="path25" />
    </clipPath>
    <clipPath
       clipPathUnits="userSpaceOnUse"
       id="clipPath27">
      <path
         d="M 0,539.2 H 509.355 V 0 H 0 Z"
         transform="translate(-227.36161,-359.04411)"
         id="path27" />
    </clipPath>
    <clipPath
       clipPathUnits="userSpaceOnUse"
       id="clipPath29">
      <path
         d="M 0,539.2 H 509.355 V 0 H 0 Z"
         transform="translate(-196.43511,-339.10631)"
         id="path29" />
    </clipPath>
    <clipPath
       clipPathUnits="userSpaceOnUse"
       id="clipPath31">
      <path
         d="M 0,539.2 H 509.355 V 0 H 0 Z"
         transform="translate(-306.09331,-339.10631)"
         id="path31" />
    </clipPath>
    <clipPath
       clipPathUnits="userSpaceOnUse"
       id="clipPath33">
      <path
         d="M 0,539.2 H 509.355 V 0 H 0 Z"
         transform="translate(-217.81431,-350.46011)"
         id="path33" />
    </clipPath>
    <clipPath
       clipPathUnits="userSpaceOnUse"
       id="clipPath35">
      <path
         d="M 0,539.2 H 509.355 V 0 H 0 Z"
         transform="translate(-287.63121,-348.16301)"
         id="path35" />
    </clipPath>
    <clipPath
       clipPathUnits="userSpaceOnUse"
       id="clipPath37">
      <path
         d="M 0,539.2 H 509.355 V 0 H 0 Z"
         transform="translate(-217.3927,-378.98191)"
         id="path37" />
    </clipPath>
  </defs>
  <sodipodi:namedview
     id="namedview1"
     pagecolor="#ffffff"
     bordercolor="#000000"
     borderopacity="0.25"
     inkscape:showpageshadow="2"
     inkscape:pageopacity="0.0"
     inkscape:pagecheckerboard="0"
     inkscape:deskcolor="#d1d1d1">
    <inkscape:page
       x="0"
       y="0"
       inkscape:label="1"
       id="page1"
       width="679.14001"
       height="718.93335"
       margin="0 2.3973334 0 0"
       bleed="0" />
  </sodipodi:namedview>
  <g
     id="layer-MC0"
     inkscape:groupmode="layer"
     inkscape:label="Layer 2" />
  <g
     id="layer-MC1"
     inkscape:groupmode="layer"
     inkscape:label="Layer 1">
    <path
       id="path1"
       d="M 0,0 H 507.557 V 539.2 H 0 Z"
       style="fill:#a7d81c;fill-opacity:1;fill-rule:nonzero;stroke:none"
       transform="matrix(1.3333333,0,0,-1.3333333,0,718.93333)" />
    <path
       id="path2"
       d="m 0,0 h 5.394 c 1.678,0 3.21,0.268 4.595,0.802 1.385,0.533 2.483,1.386 3.296,2.558 0.813,1.173 1.219,2.707 1.219,4.606 0,1.809 -0.393,3.301 -1.178,4.473 -0.787,1.17 -1.866,2.031 -3.237,2.58 -1.372,0.55 -2.937,0.823 -4.695,0.823 H 0 Z m 0,-11.614 h -2.158 v 29.682 h 7.512 c 2.238,0 4.209,-0.371 5.914,-1.112 1.704,-0.743 3.036,-1.855 3.996,-3.338 0.958,-1.484 1.438,-3.368 1.438,-5.652 0,-2.374 -0.5,-4.316 -1.499,-5.829 C 14.205,0.624 12.852,-0.489 11.148,-1.201 9.443,-1.913 7.538,-2.269 5.434,-2.269 H 0 Z"
       style="fill:#166a43;fill-opacity:1;fill-rule:nonzero;stroke:none"
       transform="matrix(1.3333333,0,0,-1.3333333,138.96773,490.41027)"
       clip-path="url(#clipPath3)" />
    <path
       id="path4"
       d="m 0,0 v -27.456 h 14.104 v -2.226 H 0.08 c -0.826,0 -1.405,0.223 -1.738,0.668 -0.334,0.446 -0.499,1.038 -0.499,1.779 V 0 Z"
       style="fill:#166a43;fill-opacity:1;fill-rule:nonzero;stroke:none"
       transform="matrix(1.3333333,0,0,-1.3333333,182.70587,466.32013)"
       clip-path="url(#clipPath5)" />
    <path
       id="path6"
       d="m 0,0 h -15.583 c -0.826,0 -1.406,0.223 -1.739,0.668 -0.333,0.445 -0.499,1.038 -0.499,1.779 v 24.788 c 0,0.741 0.166,1.335 0.499,1.78 0.333,0.445 0.913,0.667 1.739,0.667 H -0.36 v -2.18 H -15.663 V 15.931 h 14.584 v -2.18 L -15.663,13.707 V 2.225 H 0 Z"
       style="fill:#166a43;fill-opacity:1;fill-rule:nonzero;stroke:none"
       transform="matrix(1.3333333,0,0,-1.3333333,241.89533,505.896)"
       clip-path="url(#clipPath7)" />
    <path
       id="path8"
       d="m 0,0 c -0.986,0 -1.872,0.342 -2.657,1.023 -0.786,0.683 -1.379,1.706 -1.778,3.072 l -7.192,26.032 h 2.238 L -2.437,4.806 C -2.224,4.035 -1.885,3.456 -1.418,3.071 -0.953,2.685 -0.479,2.493 0,2.493 c 0.533,0 1.026,0.192 1.479,0.578 0.452,0.385 0.785,0.964 0.999,1.735 L 9.39,30.127 h 2.238 L 4.436,4.095 C 4.036,2.729 3.449,1.706 2.677,1.023 1.905,0.342 1.012,0 0,0"
       style="fill:#166a43;fill-opacity:1;fill-rule:nonzero;stroke:none"
       transform="matrix(1.3333333,0,0,-1.3333333,272.9008,506.4896)"
       clip-path="url(#clipPath9)" />
    <path
       id="path10"
       d="m 230.088,189.46 h 2.158 v -29.682 h -2.158 z"
       style="fill:#166a43;fill-opacity:1;fill-rule:nonzero;stroke:none"
       transform="matrix(1.3333333,0,0,-1.3333333,0,718.93333)"
       clip-path="url(#clipPath11)" />
    <path
       id="path12"
       d="M 0,0 C -1.119,0 -1.852,-0.653 -2.197,-1.958 L -6.433,-17.176 H 6.433 L 2.198,-1.958 C 1.851,-0.653 1.119,0 0,0 m -11.627,-27.946 7.551,26.701 c 0.347,1.156 0.873,2.016 1.579,2.58 0.706,0.564 1.539,0.846 2.497,0.846 0.959,0 1.799,-0.282 2.518,-0.846 0.719,-0.564 1.238,-1.424 1.558,-2.58 l 7.551,-26.701 H 9.43 l -2.357,8.589 -14.145,-0.045 -2.358,-8.544 z"
       style="fill:#166a43;fill-opacity:1;fill-rule:nonzero;stroke:none"
       transform="matrix(1.3333333,0,0,-1.3333333,343.6508,468.63493)"
       clip-path="url(#clipPath13)" />
    <path
       id="path14"
       d="m 0,0 c -1.812,0 -3.516,0.394 -5.115,1.179 -1.598,0.786 -3.01,1.877 -4.235,3.272 -1.226,1.394 -2.184,3.018 -2.877,4.872 -0.693,1.853 -1.038,3.864 -1.038,6.03 0,2.106 0.345,4.079 1.038,5.919 0.693,1.839 1.651,3.455 2.877,4.851 1.225,1.394 2.637,2.484 4.235,3.27 1.599,0.786 3.303,1.179 5.115,1.179 1.491,0 2.897,-0.26 4.216,-0.778 1.318,-0.52 2.516,-1.261 3.595,-2.226 1.079,-0.965 1.965,-2.114 2.658,-3.448 L 8.711,22.918 c -0.906,1.692 -2.145,3.004 -3.717,3.939 -1.571,0.934 -3.263,1.401 -5.074,1.401 -1.493,0 -2.897,-0.326 -4.215,-0.979 -1.319,-0.653 -2.492,-1.573 -3.517,-2.759 -1.026,-1.187 -1.818,-2.567 -2.377,-4.138 -0.56,-1.573 -0.839,-3.249 -0.839,-5.029 0,-1.839 0.279,-3.546 0.839,-5.117 0.559,-1.573 1.351,-2.953 2.377,-4.139 1.025,-1.186 2.198,-2.114 3.517,-2.781 1.318,-0.668 2.722,-1.002 4.215,-1.002 1.811,0 3.503,0.468 5.074,1.403 1.572,0.934 2.811,2.247 3.717,3.937 L 10.469,6.453 C 9.776,5.147 8.89,4.006 7.811,3.027 6.732,2.048 5.534,1.298 4.216,0.779 2.897,0.26 1.491,0 0,0"
       style="fill:#166a43;fill-opacity:1;fill-rule:nonzero;stroke:none"
       transform="matrix(1.3333333,0,0,-1.3333333,418.0232,506.4896)"
       clip-path="url(#clipPath15)" />
    <path
       id="path16"
       d="m 337.771,189.46 h 2.157 v -29.682 h -2.157 z"
       style="fill:#166a43;fill-opacity:1;fill-rule:nonzero;stroke:none"
       transform="matrix(1.3333333,0,0,-1.3333333,0,718.93333)"
       clip-path="url(#clipPath17)" />
    <path
       id="path18"
       d="m 0,0 v -2.226 h -8.551 v -27.456 h -2.157 V -2.226 L -19.26,-2.27 V 0 Z"
       style="fill:#166a43;fill-opacity:1;fill-rule:nonzero;stroke:none"
       transform="matrix(1.3333333,0,0,-1.3333333,496.23147,466.32013)"
       clip-path="url(#clipPath19)" />
    <path
       id="path20"
       d="m 0,0 h -2.158 v 9.968 c -0.479,0.149 -0.906,0.401 -1.278,0.757 -0.667,0.652 -1.253,1.602 -1.758,2.848 l -6.394,16.109 H -9.27 L -3.237,14.24 c 0.293,-0.741 0.606,-1.305 0.939,-1.691 0.333,-0.385 0.753,-0.578 1.259,-0.578 0.56,0 0.999,0.193 1.319,0.578 0.32,0.386 0.625,0.95 0.918,1.691 L 7.272,29.682 H 9.589 L 3.116,13.573 C 2.637,12.327 2.051,11.377 1.358,10.725 0.959,10.369 0.506,10.117 0,9.968 Z"
       style="fill:#166a43;fill-opacity:1;fill-rule:nonzero;stroke:none"
       transform="matrix(1.3333333,0,0,-1.3333333,523.88067,505.896)"
       clip-path="url(#clipPath21)" />
    <path
       id="path22"
       d="m 0,0 v -39.877 l -1.469,-0.914 -16.985,8.383 v 2.272 l 16.414,-8.097 v 37.605 l -17.895,8.949 v -98.04 h -2.039 V 9.969 l 1.473,0.914 19.938,-9.969 z"
       style="fill:#166a43;fill-opacity:1;fill-rule:nonzero;stroke:none"
       transform="matrix(1.3333333,0,0,-1.3333333,345.06067,267.40173)"
       clip-path="url(#clipPath23)" />
    <path
       id="path24"
       d="m 0,0 v 39.877 l 1.469,0.914 16.985,-8.383 V 30.136 L 2.04,38.233 V 0.628 l 17.894,-8.949 v 98.04 h 2.04 V -9.969 l -1.473,-0.914 -19.938,9.969 z"
       style="fill:#166a43;fill-opacity:1;fill-rule:nonzero;stroke:none"
       transform="matrix(1.3333333,0,0,-1.3333333,327.69667,372.51693)"
       clip-path="url(#clipPath25)" />
    <path
       id="path26"
       d="m 0,0 h -1.02 v -119.627 l 1.391,-0.95 24.551,9.601 24.551,-9.601 1.391,0.95 V 0 L 49.466,0.947 24.922,-8.871 0.379,0.947 -1.02,0 H 0 l -0.379,-0.947 24.923,-9.969 h 0.757 l 23.524,9.41 v -116.627 l -23.531,9.202 H 24.551 L 1.02,-118.133 V 0 H 0 l -0.379,-0.947 z"
       style="fill:#166a43;fill-opacity:1;fill-rule:nonzero;stroke:none"
       transform="matrix(1.3333333,0,0,-1.3333333,303.1488,240.20787)"
       clip-path="url(#clipPath27)" />
    <path
       id="path28"
       d="M 0,0 V -89.72 H 2.04 V 0"
       style="fill:#166a43;fill-opacity:1;fill-rule:nonzero;stroke:none"
       transform="matrix(1.3333333,0,0,-1.3333333,261.91347,266.7916)"
       clip-path="url(#clipPath29)" />
    <path
       id="path30"
       d="M 0,0 V -89.72 H 2.04 V 0"
       style="fill:#166a43;fill-opacity:1;fill-rule:nonzero;stroke:none"
       transform="matrix(1.3333333,0,0,-1.3333333,408.1244,266.7916)"
       clip-path="url(#clipPath31)" />
    <path
       id="path32"
       d="M 0,0 -9.969,4.528 -11.41,3.599 v -110.431 l 1.53,-0.883 9.968,5.758 -1.02,1.766 -8.439,-4.875 V 2.016 l 8.528,-3.873 z"
       style="fill:#166a43;fill-opacity:1;fill-rule:nonzero;stroke:none"
       transform="matrix(1.3333333,0,0,-1.3333333,290.41907,251.6532)"
       clip-path="url(#clipPath33)" />
    <path
       id="path34"
       d="m 0,0 8.493,4.247 v -106.561 l -8.606,3.079 -0.687,-1.921 9.969,-3.566 1.364,0.96 V 5.897 L 9.057,6.809 -0.912,1.824 Z"
       style="fill:#166a43;fill-opacity:1;fill-rule:nonzero;stroke:none"
       transform="matrix(1.3333333,0,0,-1.3333333,383.50827,254.716)"
       clip-path="url(#clipPath35)" />
    <path
       id="path36"
       d="m 0,0 h -1.02 v -159.503 l 1.526,-0.885 34.385,19.649 34.386,-19.649 1.525,0.885 V 0 L 69.277,0.885 34.891,-18.763 0.506,0.885 -1.02,0 H 0 l -0.506,-0.885 34.891,-19.938 h 1.012 L 68.763,-1.757 V -157.746 L 35.397,-138.68 H 34.385 L 1.02,-157.745 V 0 H 0 l -0.506,-0.885 z"
       style="fill:#166a43;fill-opacity:1;fill-rule:nonzero;stroke:none"
       transform="matrix(1.3333333,0,0,-1.3333333,289.85693,213.62413)"
       clip-path="url(#clipPath37)" />
  </g>
</svg>
