<?xml version="1.0" encoding="UTF-8"?>
<svg id="Layer_2" data-name="Layer 2" xmlns="http://www.w3.org/2000/svg" viewBox="0 0 300.43 220.53">
  <defs>
    <style>
      .cls-1 {
        fill: #fdfbdf;
      }
    </style>
  </defs>
  <g id="Layer_1-2" data-name="Layer 1">
    <g>
      <path class="cls-1" d="M2.16,220.09H0v-29.68h7.51c2.24,0,4.21.37,5.91,1.11,1.7.74,3.04,1.85,4,3.34.96,1.48,1.44,3.37,1.44,5.65s-.5,4.32-1.5,5.83c-1,1.51-2.35,2.63-4.06,3.34-1.71.71-3.61,1.07-5.71,1.07H2.16v9.35ZM2.16,208.47h5.39c1.68,0,3.21-.27,4.59-.8,1.38-.53,2.48-1.39,3.3-2.56.81-1.17,1.22-2.71,1.22-4.61s-.39-3.3-1.18-4.47c-.79-1.17-1.87-2.03-3.24-2.58-1.37-.55-2.94-.82-4.7-.82H2.16v15.84Z"/>
      <path class="cls-1" d="M34.96,190.41v27.46h14.1v2.23h-14.02c-.83,0-1.41-.22-1.74-.67-.33-.45-.5-1.04-.5-1.78v-27.23h2.16Z"/>
      <path class="cls-1" d="M79.35,220.09h-15.58c-.83,0-1.41-.22-1.74-.67-.33-.45-.5-1.04-.5-1.78v-24.79c0-.74.17-1.34.5-1.78.33-.45.91-.67,1.74-.67h15.22v2.18h-15.3v11.57h14.58v2.18l-14.58.04v11.48h15.66v2.23Z"/>
      <path class="cls-1" d="M102.61,220.53c-.99,0-1.87-.34-2.66-1.02-.79-.68-1.38-1.71-1.78-3.07l-7.19-26.03h2.24l6.95,25.32c.21.77.55,1.35,1.02,1.73.47.39.94.58,1.42.58.53,0,1.03-.19,1.48-.58.45-.39.79-.96,1-1.73l6.91-25.32h2.24l-7.19,26.03c-.4,1.37-.99,2.39-1.76,3.07-.77.68-1.67,1.02-2.68,1.02Z"/>
      <rect class="cls-1" x="128.02" y="190.41" width="2.16" height="29.68"/>
      <path class="cls-1" d="M144.04,220.09l7.55-26.7c.35-1.16.87-2.02,1.58-2.58.71-.56,1.54-.85,2.5-.85s1.8.28,2.52.85c.72.56,1.24,1.42,1.56,2.58l7.55,26.7h-2.2l-2.36-8.59-14.14.04-2.36,8.54h-2.2ZM155.67,192.14c-1.12,0-1.85.65-2.2,1.96l-4.24,15.22h12.87l-4.24-15.22c-.35-1.31-1.08-1.96-2.2-1.96Z"/>
      <path class="cls-1" d="M211.45,220.53c-1.81,0-3.52-.39-5.11-1.18-1.6-.79-3.01-1.88-4.23-3.27-1.23-1.39-2.18-3.02-2.88-4.87-.69-1.85-1.04-3.86-1.04-6.03s.35-4.08,1.04-5.92c.69-1.84,1.65-3.45,2.88-4.85,1.22-1.39,2.64-2.48,4.23-3.27,1.6-.79,3.3-1.18,5.11-1.18,1.49,0,2.9.26,4.22.78,1.32.52,2.52,1.26,3.6,2.23,1.08.96,1.96,2.11,2.66,3.45l-1.76,1.2c-.91-1.69-2.14-3-3.72-3.94-1.57-.93-3.26-1.4-5.07-1.4-1.49,0-2.9.33-4.22.98-1.32.65-2.49,1.57-3.52,2.76-1.03,1.19-1.82,2.57-2.38,4.14-.56,1.57-.84,3.25-.84,5.03s.28,3.55.84,5.12c.56,1.57,1.35,2.95,2.38,4.14,1.02,1.19,2.2,2.11,3.52,2.78,1.32.67,2.72,1,4.22,1,1.81,0,3.5-.47,5.07-1.4,1.57-.93,2.81-2.25,3.72-3.94l1.76,1.2c-.69,1.31-1.58,2.45-2.66,3.43-1.08.98-2.28,1.73-3.6,2.25-1.32.52-2.72.78-4.22.78Z"/>
      <rect class="cls-1" x="235.7" y="190.41" width="2.16" height="29.68"/>
      <polygon class="cls-1" points="270.11 190.41 270.11 192.63 261.55 192.63 261.55 220.09 259.4 220.09 259.4 192.63 250.85 192.68 250.85 190.41 270.11 190.41"/>
      <path class="cls-1" d="M290.84,220.09h-2.16v-9.97c-.48-.15-.91-.4-1.28-.76-.67-.65-1.25-1.6-1.76-2.85l-6.39-16.11h2.32l6.03,15.44c.29.74.61,1.31.94,1.69.33.38.75.58,1.26.58.56,0,1-.19,1.32-.58.32-.39.63-.95.92-1.69l6.07-15.44h2.32l-6.47,16.11c-.48,1.25-1.07,2.2-1.76,2.85-.4.36-.85.61-1.36.76v9.97Z"/>
      <polygon class="cls-1" points="156.73 41.22 156.73 81.1 155.26 82.01 138.27 73.63 138.27 71.35 154.69 79.45 154.69 41.85 136.79 32.9 136.79 130.94 134.75 130.94 134.75 31.25 136.23 30.34 156.16 40.3 156.73 41.22"/>
      <polygon class="cls-1" points="143.7 120.05 143.7 80.18 145.17 79.26 162.16 87.65 162.16 89.92 145.74 81.82 145.74 119.43 163.64 128.38 163.64 30.34 165.68 30.34 165.68 130.02 164.21 130.94 144.27 120.97 143.7 120.05"/>
      <polygon class="cls-1" points="125.29 20.82 124.27 20.82 124.27 140.45 125.66 141.4 150.22 131.8 174.77 141.4 176.16 140.45 176.16 20.82 174.76 19.88 150.22 29.69 125.67 19.88 124.27 20.82 125.29 20.82 124.91 21.77 149.84 31.74 150.59 31.74 174.12 22.33 174.12 138.96 150.59 129.75 149.84 129.75 126.31 138.96 126.31 20.82 125.29 20.82 124.91 21.77 125.29 20.82"/>
      <polyline class="cls-1" points="94.37 40.76 94.37 130.48 96.41 130.48 96.41 40.76"/>
      <polyline class="cls-1" points="204.03 40.76 204.03 130.48 206.06 130.48 206.06 40.76"/>
      <polygon class="cls-1" points="115.75 29.41 105.78 24.88 104.34 25.81 104.34 136.24 105.87 137.12 115.83 131.36 114.81 129.6 106.38 134.47 106.38 27.39 114.9 31.26 115.75 29.41"/>
      <polygon class="cls-1" points="185.56 31.7 194.06 27.46 194.06 134.02 185.45 130.94 184.76 132.86 194.73 136.43 196.1 135.47 196.1 25.81 194.62 24.9 184.65 29.88 185.56 31.7"/>
      <polygon class="cls-1" points="115.32 .89 114.3 .89 114.3 160.39 115.83 161.27 150.22 141.62 184.6 161.27 186.13 160.39 186.13 .89 184.6 0 150.22 19.65 115.83 0 114.3 .89 115.32 .89 114.82 1.77 149.71 21.71 150.72 21.71 184.09 2.64 184.09 158.63 150.72 139.56 149.71 139.56 116.34 158.63 116.34 .89 115.32 .89 114.82 1.77 115.32 .89"/>
    </g>
  </g>
</svg>