<?xml version="1.0" encoding="UTF-8"?>
<svg id="Layer_1" xmlns="http://www.w3.org/2000/svg" version="1.1" xmlns:xlink="http://www.w3.org/1999/xlink" viewBox="0 0 3920.87 878.09">
  <!-- Generator: Adobe Illustrator 29.6.1, SVG Export Plug-In . SVG Version: 2.1.1 Build 9)  -->
  <defs>
    <style>
      .st0 {
        filter: url(#drop-shadow-2);
      }

      .st1, .st2 {
        fill: #fff;
      }

      .st2 {
        font-family: 1FTVVIPChillax-Light, '1FTV VIP Chillax';
        font-size: 16px;
        font-weight: 300;
      }

      .st3 {
        fill: #083b24;
        font-family: Montserrat-Bold, Montserrat;
        font-size: 18px;
        font-weight: 700;
      }

      .st4 {
        fill: url(#radial-gradient);
      }

      .st5 {
        stroke: #000;
      }

      .st5, .st6 {
        fill: none;
        stroke-dasharray: 12 12 12 12 12 12;
      }

      .st5, .st6, .st7 {
        stroke-miterlimit: 10;
      }

      .st6 {
        stroke-width: 3px;
      }

      .st6, .st7 {
        stroke: #fff;
      }

      .st8 {
        fill: #fff5dc;
      }

      .st7 {
        fill: url(#radial-gradient1);
        stroke-width: 6px;
      }
    </style>
    <radialGradient id="radial-gradient" cx="1960.43" cy="411.15" fx="1960.43" fy="411.15" r="1416.39" gradientTransform="scale(1 1.07)" gradientUnits="userSpaceOnUse">
      <stop offset="0" stop-color="#073b24"/>
      <stop offset="1" stop-color="#0e6947"/>
    </radialGradient>
    <filter id="drop-shadow-2" x="1804.4" y="491.92" width="326.16" height="363.36" filterUnits="userSpaceOnUse">
      <feOffset dx="7" dy="7"/>
      <feGaussianBlur result="blur" stdDeviation="5"/>
      <feFlood flood-color="#231f20" flood-opacity=".75"/>
      <feComposite in2="blur" operator="in"/>
      <feComposite in="SourceGraphic"/>
    </filter>
    <radialGradient id="radial-gradient1" cx="1960.43" cy="666.66" fx="1960.43" fy="666.66" r="154.56" gradientUnits="userSpaceOnUse">
      <stop offset="0" stop-color="#0e6947"/>
      <stop offset="1" stop-color="#073b24"/>
    </radialGradient>
  </defs>
  <rect class="st4" width="3920.87" height="878.09"/>
  <g>
    <g class="st0">
      <path class="st7" d="M2105.43,735.94v-138.56c0-8.93-4.76-17.18-12.5-21.65l-120-69.28c-7.74-4.47-17.26-4.47-25,0l-120,69.28c-7.74,4.47-12.5,12.72-12.5,21.65v138.56c0,8.93,4.76,17.18,12.5,21.65l120,69.28c7.74,4.47,17.26,4.47,25,0l120-69.28c7.74-4.47,12.5-12.72,12.5-21.65Z"/>
      <g>
        <path class="st1" d="M1855.95,744.16h-1.52v-20.95h5.3c1.58,0,2.97.26,4.17.78,1.2.52,2.14,1.31,2.82,2.36.68,1.05,1.01,2.38,1.01,3.99s-.35,3.05-1.06,4.11c-.7,1.07-1.66,1.85-2.86,2.36-1.2.5-2.55.75-4.03.75h-3.83v6.6ZM1855.95,735.97h3.81c1.18,0,2.26-.19,3.24-.57.98-.38,1.75-.98,2.33-1.81.57-.83.86-1.91.86-3.25s-.28-2.33-.83-3.16c-.56-.83-1.32-1.43-2.28-1.82-.97-.39-2.07-.58-3.31-.58h-3.81v11.18Z"/>
        <path class="st1" d="M1879.1,723.22v19.38h9.95v1.57h-9.9c-.58,0-.99-.16-1.23-.47-.24-.31-.35-.73-.35-1.26v-19.22h1.52Z"/>
        <path class="st1" d="M1910.43,744.16h-11c-.58,0-.99-.16-1.23-.47-.24-.31-.35-.73-.35-1.26v-17.49c0-.52.12-.94.35-1.26.23-.31.64-.47,1.23-.47h10.74v1.54h-10.8v8.17h10.29v1.54l-10.29.03v8.1h11.05v1.57Z"/>
        <path class="st1" d="M1926.84,744.48c-.7,0-1.32-.24-1.88-.72-.55-.48-.97-1.2-1.25-2.17l-5.08-18.37h1.58l4.91,17.87c.15.54.39.95.72,1.22.33.27.66.41,1,.41.38,0,.72-.14,1.04-.41.32-.27.55-.68.71-1.22l4.88-17.87h1.58l-5.08,18.37c-.28.96-.7,1.69-1.24,2.17-.55.48-1.18.72-1.89.72Z"/>
        <rect class="st1" x="1944.77" y="723.22" width="1.52" height="20.95"/>
        <path class="st1" d="M1956.08,744.16l5.33-18.84c.24-.82.62-1.42,1.11-1.82.5-.4,1.09-.6,1.76-.6s1.27.2,1.78.6c.51.4.87,1,1.1,1.82l5.33,18.84h-1.55l-1.66-6.06-9.98.03-1.66,6.03h-1.55ZM1964.28,724.44c-.79,0-1.31.46-1.55,1.38l-2.99,10.74h9.08l-2.99-10.74c-.24-.92-.76-1.38-1.55-1.38Z"/>
        <path class="st1" d="M2003.65,744.48c-1.28,0-2.48-.28-3.61-.83-1.13-.55-2.12-1.32-2.99-2.31-.87-.98-1.54-2.13-2.03-3.44-.49-1.31-.73-2.73-.73-4.26s.24-2.88.73-4.18c.49-1.3,1.17-2.44,2.03-3.42.86-.98,1.86-1.75,2.99-2.31,1.13-.55,2.33-.83,3.61-.83,1.05,0,2.04.18,2.98.55.93.37,1.78.89,2.54,1.57.76.68,1.39,1.49,1.88,2.43l-1.24.85c-.64-1.19-1.51-2.12-2.62-2.78-1.11-.66-2.3-.99-3.58-.99-1.05,0-2.04.23-2.98.69-.93.46-1.76,1.11-2.48,1.95-.72.84-1.28,1.81-1.68,2.92-.4,1.11-.59,2.29-.59,3.55s.2,2.5.59,3.61c.39,1.11.95,2.08,1.68,2.92.72.84,1.55,1.49,2.48,1.96.93.47,1.92.71,2.98.71,1.28,0,2.47-.33,3.58-.99,1.11-.66,1.98-1.59,2.62-2.78l1.24.85c-.49.92-1.11,1.73-1.88,2.42-.76.69-1.61,1.22-2.54,1.59-.93.37-1.92.55-2.98.55Z"/>
        <rect class="st1" x="2020.76" y="723.22" width="1.52" height="20.95"/>
        <polygon class="st1" points="2045.04 723.22 2045.04 724.79 2039.01 724.79 2039.01 744.16 2037.48 744.16 2037.48 724.79 2031.45 724.82 2031.45 723.22 2045.04 723.22"/>
        <path class="st1" d="M2059.68,744.16h-1.52v-7.03c-.34-.11-.64-.28-.9-.53-.47-.46-.88-1.13-1.24-2.01l-4.51-11.37h1.64l4.26,10.9c.21.52.43.92.66,1.19.23.27.53.41.89.41.39,0,.71-.14.93-.41.23-.27.44-.67.65-1.19l4.29-10.9h1.64l-4.57,11.37c-.34.88-.75,1.55-1.24,2.01-.28.25-.6.43-.96.53v7.03Z"/>
        <polygon class="st1" points="1965.03 617.93 1965.03 646.08 1963.99 646.72 1952.01 640.8 1952.01 639.2 1963.59 644.92 1963.59 618.38 1950.96 612.06 1950.96 681.25 1949.52 681.25 1949.52 610.9 1950.56 610.25 1964.63 617.29 1965.03 617.93"/>
        <polygon class="st1" points="1955.84 673.57 1955.84 645.43 1956.88 644.78 1968.86 650.7 1968.86 652.3 1957.28 646.59 1957.28 673.13 1969.91 679.44 1969.91 610.25 1971.35 610.25 1971.35 680.6 1970.31 681.25 1956.24 674.21 1955.84 673.57"/>
        <polygon class="st1" points="1942.85 603.54 1942.13 603.54 1942.13 687.96 1943.11 688.63 1960.43 681.86 1977.76 688.63 1978.74 687.96 1978.74 603.54 1977.76 602.87 1960.43 609.8 1943.11 602.87 1942.13 603.54 1942.85 603.54 1942.58 604.21 1960.17 611.24 1960.7 611.24 1977.3 604.6 1977.3 686.91 1960.7 680.41 1960.17 680.41 1943.57 686.91 1943.57 603.54 1942.85 603.54 1942.58 604.21 1942.85 603.54"/>
        <polyline class="st1" points="1921.02 617.61 1921.02 680.93 1922.46 680.93 1922.46 617.61"/>
        <polyline class="st1" points="1998.41 617.61 1998.41 680.93 1999.85 680.93 1999.85 617.61"/>
        <polygon class="st1" points="1936.11 609.6 1929.07 606.4 1928.06 607.06 1928.06 684.99 1929.14 685.61 1936.17 681.55 1935.45 680.3 1929.5 683.74 1929.5 608.18 1935.51 610.91 1936.11 609.6"/>
        <polygon class="st1" points="1985.38 611.22 1991.37 608.22 1991.37 683.42 1985.3 681.25 1984.82 682.61 1991.85 685.12 1992.81 684.44 1992.81 607.06 1991.77 606.41 1984.74 609.93 1985.38 611.22"/>
        <polygon class="st1" points="1935.81 589.47 1935.09 589.47 1935.09 702.03 1936.17 702.66 1960.43 688.79 1984.7 702.66 1985.78 702.03 1985.78 589.47 1984.7 588.85 1960.43 602.71 1936.17 588.85 1935.09 589.47 1935.81 589.47 1935.45 590.09 1960.08 604.17 1960.79 604.17 1984.34 590.71 1984.34 700.79 1960.79 687.34 1960.08 687.34 1936.53 700.79 1936.53 589.47 1935.81 589.47 1935.45 590.09 1935.81 589.47"/>
      </g>
    </g>
    <g>
      <g>
        <path class="st6" d="M3780.45,179.46h-1598.39c-59.14,0-108.68,45.08-113.86,103.99-1,11.36-1.56,23.94-1.56,37.9,0,1.31,0,2.61.01,3.9.58,76.43,62.96,137.98,139.4,137.98h1301.42s207.58-2.94,207.58-2.94c59.14,0,108.68,45.08,113.86,103.99,1,11.36,1.56,23.94,1.56,37.9,0,1.31,0,2.61-.01,3.9-.58,76.43-62.96,137.98-139.4,137.98h-1453.99"/>
        <g>
          <polygon class="st1" points="3798.77 158.12 3797.85 159.2 3780.45 176.44 3832.49 176.44 3851.11 158.12 3798.77 158.12"/>
          <path class="st1" d="M3851.11,200.11l-18.62-17.7h-52.04c6.77,5.08,12.93,11.08,18.47,17.7h52.19Z"/>
        </g>
        <polygon class="st1" points="2194.71 744.05 2254.4 719.66 2240.24 744.05 2254.4 768.44 2194.71 744.05"/>
      </g>
      <g>
        <path class="st8" d="M3373.99,86.69h-11.55c-1.13,0-2.05-.92-2.05-2.05v-3.01c0-1.13.92-2.05,2.05-2.05h11.55c1.13,0,2.05.92,2.05,2.05v3.01c0,1.13-.92,2.05-2.05,2.05ZM3362.43,80.95c-.38,0-.68.31-.68.68v3.01c0,.38.31.68.68.68h11.55c.38,0,.68-.31.68-.68v-3.01c0-.38-.31-.68-.68-.68h-11.55Z"/>
        <path class="st8" d="M3430.12,122h-48.19c-.34,0-.63-.25-.68-.59l-5.04-37.64h-.87c-.38,0-.68-.31-.68-.68s.31-.68.68-.68h1.46c.34,0,.63.25.68.59l5.04,37.64h47.59c.38,0,.68.31.68.68s-.31.68-.68.68Z"/>
        <path class="st8" d="M3426.07,112.67h-44.98c-.38,0-.68-.31-.68-.68s.31-.68.68-.68h44.44l5.2-23.15h-53.24c-.38,0-.68-.31-.68-.68s.31-.68.68-.68h54.09c.21,0,.4.09.53.26.13.16.18.37.13.58l-5.51,24.52c-.07.31-.35.53-.67.53Z"/>
        <path class="st8" d="M3390.5,106.59h-1.39c-2.07,0-3.75-1.68-3.75-3.75v-8.03c0-2.07,1.68-3.75,3.75-3.75h1.39c2.07,0,3.75,1.68,3.75,3.75v8.03c0,2.07-1.68,3.75-3.75,3.75ZM3389.11,92.42c-1.32,0-2.39,1.07-2.39,2.39v8.03c0,1.32,1.07,2.39,2.39,2.39h1.39c1.32,0,2.39-1.07,2.39-2.39v-8.03c0-1.32-1.07-2.39-2.39-2.39h-1.39Z"/>
        <path class="st8" d="M3405.34,106.59h-1.39c-2.07,0-3.75-1.68-3.75-3.75v-8.03c0-2.07,1.68-3.75,3.75-3.75h1.39c2.07,0,3.75,1.68,3.75,3.75v8.03c0,2.07-1.68,3.75-3.75,3.75ZM3403.95,92.42c-1.32,0-2.39,1.07-2.39,2.39v8.03c0,1.32,1.07,2.39,2.39,2.39h1.39c1.32,0,2.39-1.07,2.39-2.39v-8.03c0-1.32-1.07-2.39-2.39-2.39h-1.39Z"/>
        <path class="st8" d="M3420.19,106.59h-1.39c-2.07,0-3.75-1.68-3.75-3.75v-8.03c0-2.07,1.68-3.75,3.75-3.75h1.39c2.07,0,3.75,1.68,3.75,3.75v8.03c0,2.07-1.68,3.75-3.75,3.75ZM3418.8,92.42c-1.32,0-2.39,1.07-2.39,2.39v8.03c0,1.32,1.07,2.39,2.39,2.39h1.39c1.32,0,2.39-1.07,2.39-2.39v-8.03c0-1.32-1.07-2.39-2.39-2.39h-1.39Z"/>
        <path class="st8" d="M3393.8,134.15c-3.54,0-6.42-2.88-6.42-6.42s2.88-6.42,6.42-6.42,6.42,2.88,6.42,6.42-2.88,6.42-6.42,6.42ZM3393.8,122.68c-2.79,0-5.05,2.27-5.05,5.05s2.27,5.05,5.05,5.05,5.05-2.27,5.05-5.05-2.27-5.05-5.05-5.05Z"/>
        <path class="st8" d="M3415.39,134.15c-3.54,0-6.42-2.88-6.42-6.42s2.88-6.42,6.42-6.42,6.42,2.88,6.42,6.42-2.88,6.42-6.42,6.42ZM3415.39,122.68c-2.79,0-5.05,2.27-5.05,5.05s2.27,5.05,5.05,5.05,5.05-2.27,5.05-5.05-2.27-5.05-5.05-5.05Z"/>
      </g>
      <rect class="st1" x="2827.62" y="153.97" width="210" height="55"/>
      <text class="st2" transform="translate(2905.57 235.62)"><tspan x="0" y="0">5 PHÚT</tspan></text>
      <g>
        <path class="st8" d="M2910.28,78.97h-11.55c-1.13,0-2.05-.92-2.05-2.05v-3.01c0-1.13.92-2.05,2.05-2.05h11.55c1.13,0,2.05.92,2.05,2.05v3.01c0,1.13-.92,2.05-2.05,2.05ZM2898.73,73.23c-.38,0-.68.31-.68.68v3.01c0,.38.31.68.68.68h11.55c.38,0,.68-.31.68-.68v-3.01c0-.38-.31-.68-.68-.68h-11.55Z"/>
        <path class="st8" d="M2966.42,114.28h-48.19c-.34,0-.63-.25-.68-.59l-5.04-37.64h-.87c-.38,0-.68-.31-.68-.68s.31-.68.68-.68h1.46c.34,0,.63.25.68.59l5.04,37.64h47.59c.38,0,.68.31.68.68s-.31.68-.68.68Z"/>
        <path class="st8" d="M2962.37,104.95h-44.98c-.38,0-.68-.31-.68-.68s.31-.68.68-.68h44.44l5.2-23.15h-53.24c-.38,0-.68-.31-.68-.68s.31-.68.68-.68h54.09c.21,0,.4.09.53.26.13.16.18.37.13.58l-5.51,24.52c-.07.31-.35.53-.67.53Z"/>
        <path class="st8" d="M2926.8,98.87h-1.39c-2.07,0-3.75-1.68-3.75-3.75v-8.03c0-2.07,1.68-3.75,3.75-3.75h1.39c2.07,0,3.75,1.68,3.75,3.75v8.03c0,2.07-1.68,3.75-3.75,3.75ZM2925.4,84.7c-1.32,0-2.39,1.07-2.39,2.39v8.03c0,1.32,1.07,2.39,2.39,2.39h1.39c1.32,0,2.39-1.07,2.39-2.39v-8.03c0-1.32-1.07-2.39-2.39-2.39h-1.39Z"/>
        <path class="st8" d="M2941.64,98.87h-1.39c-2.07,0-3.75-1.68-3.75-3.75v-8.03c0-2.07,1.68-3.75,3.75-3.75h1.39c2.07,0,3.75,1.68,3.75,3.75v8.03c0,2.07-1.68,3.75-3.75,3.75ZM2940.25,84.7c-1.32,0-2.39,1.07-2.39,2.39v8.03c0,1.32,1.07,2.39,2.39,2.39h1.39c1.32,0,2.39-1.07,2.39-2.39v-8.03c0-1.32-1.07-2.39-2.39-2.39h-1.39Z"/>
        <path class="st8" d="M2956.49,98.87h-1.39c-2.07,0-3.75-1.68-3.75-3.75v-8.03c0-2.07,1.68-3.75,3.75-3.75h1.39c2.07,0,3.75,1.68,3.75,3.75v8.03c0,2.07-1.68,3.75-3.75,3.75ZM2955.09,84.7c-1.32,0-2.39,1.07-2.39,2.39v8.03c0,1.32,1.07,2.39,2.39,2.39h1.39c1.32,0,2.39-1.07,2.39-2.39v-8.03c0-1.32-1.07-2.39-2.39-2.39h-1.39Z"/>
        <path class="st8" d="M2930.09,126.43c-3.54,0-6.42-2.88-6.42-6.42s2.88-6.42,6.42-6.42,6.42,2.88,6.42,6.42-2.88,6.42-6.42,6.42ZM2930.09,114.96c-2.79,0-5.05,2.27-5.05,5.05s2.27,5.05,5.05,5.05,5.05-2.27,5.05-5.05-2.27-5.05-5.05-5.05Z"/>
        <path class="st8" d="M2951.68,126.43c-3.54,0-6.42-2.88-6.42-6.42s2.88-6.42,6.42-6.42,6.42,2.88,6.42,6.42-2.88,6.42-6.42,6.42ZM2951.68,114.96c-2.79,0-5.05,2.27-5.05,5.05s2.27,5.05,5.05,5.05,5.05-2.27,5.05-5.05-2.27-5.05-5.05-5.05Z"/>
      </g>
      <rect class="st1" x="2363.92" y="153.97" width="210" height="55"/>
      <text class="st2" transform="translate(2441.86 235.62)"><tspan x="0" y="0">5 PHÚT</tspan></text>
      <polygon class="st8" points="2497.99 90.76 2477.31 90.76 2477.31 70.08 2460.53 70.08 2460.53 90.76 2439.85 90.76 2439.85 107.53 2460.53 107.53 2460.53 128.22 2477.31 128.22 2477.31 107.53 2497.99 107.53 2497.99 90.76"/>
      <rect class="st1" x="2132.07" y="153.97" width="210" height="55"/>
      <text class="st2" transform="translate(2209.19 235.62)"><tspan x="0" y="0">8 PHÚT</tspan></text>
      <polygon class="st8" points="2266.14 90.76 2245.45 90.76 2245.45 70.08 2228.68 70.08 2228.68 90.76 2208 90.76 2208 107.53 2228.68 107.53 2228.68 128.22 2245.45 128.22 2245.45 107.53 2266.14 107.53 2266.14 90.76"/>
      <rect class="st1" x="2595.77" y="153.97" width="210" height="55"/>
      <text class="st2" transform="translate(2673.72 235.62)"><tspan x="0" y="0">5 PHÚT</tspan></text>
      <polygon class="st8" points="2729.84 90.76 2709.16 90.76 2709.16 70.08 2692.39 70.08 2692.39 90.76 2671.7 90.76 2671.7 107.53 2692.39 107.53 2692.39 128.22 2709.16 128.22 2709.16 107.53 2729.84 107.53 2729.84 90.76"/>
      <rect class="st1" x="3059.47" y="153.97" width="210" height="55"/>
      <text class="st2" transform="translate(3137.94 235.62)"><tspan x="0" y="0">7 PHÚT</tspan></text>
      <g>
        <path class="st8" d="M3198.03,126.45h-67.11c-.48,0-.87-.39-.87-.87s.39-.87.87-.87h67.11c.48,0,.87.39.87.87s-.39.87-.87.87Z"/>
        <path class="st8" d="M3162.74,102.19c-4.64,0-8.41-4.33-8.41-9.65v-11.05c0-5.32,3.77-9.65,8.41-9.65s8.41,4.33,8.41,9.65v11.05c0,5.32-3.77,9.65-8.41,9.65ZM3162.74,73.59c-3.68,0-6.68,3.55-6.68,7.91v11.05c0,4.36,3,7.91,6.68,7.91s6.68-3.55,6.68-7.91v-11.05c0-4.36-3-7.91-6.68-7.91Z"/>
        <path class="st8" d="M3151.01,108.4h-14.52c-.05,0-.1,0-.15-.01-.74-.13-1.79-.4-2.44-1.25-1-1.31-.36-3.03.06-4.17.06-.17.12-.34.18-.49.18-.55.92-2.8,1.84-5.64,2.58-7.91,4.91-15.06,5.15-15.67.29-.74.98-2.43,2.62-2.39.03,0,.05,0,.08,0,1.59,0,2.25,1.67,2.54,2.39.24.61,2.59,7.8,5.18,15.76.91,2.8,1.63,5.01,1.81,5.55.05.15.11.32.18.49.13.34.27.73.38,1.13.13.46-.14.94-.6,1.07-.46.13-.94-.14-1.07-.6-.09-.34-.22-.67-.34-1-.07-.19-.14-.37-.19-.54-.18-.54-.9-2.76-1.82-5.57-1.83-5.63-4.9-15.04-5.14-15.66-.17-.42-.51-1.3-.94-1.3-.02,0-.04,0-.07,0s-.05,0-.07,0c-.43,0-.78.87-.94,1.3-.24.61-3.29,9.97-5.11,15.57-.93,2.85-1.66,5.11-1.85,5.66-.06.17-.12.35-.19.54-.32.88-.72,1.97-.3,2.52.2.27.62.46,1.28.58h14.44c.48,0,.87.39.87.87s-.39.87-.87.87Z"/>
        <path class="st8" d="M3191.22,113.73h-14.39c-4.74,0-8.6-3.86-8.6-8.6,0-3.87,2.61-7.26,6.29-8.29,1.1-4.63,5.24-7.93,10.05-7.93,5.7,0,10.34,4.64,10.34,10.34,0,.89-.12,1.78-.35,2.65,1.82,1.18,2.93,3.18,2.93,5.39,0,3.45-2.67,6.25-6.11,6.42-.05,0-.1.01-.15.01ZM3184.57,90.65c-4.16,0-7.71,2.97-8.46,7.06-.06.35-.33.62-.68.69-3.17.66-5.47,3.48-5.47,6.73,0,3.79,3.08,6.87,6.87,6.87h14.27s.06,0,.09,0c2.55-.08,4.55-2.14,4.55-4.69,0-1.79-1-3.4-2.61-4.2-.39-.19-.58-.65-.43-1.06.31-.91.47-1.85.47-2.78,0-4.74-3.86-8.6-8.6-8.6Z"/>
        <path class="st8" d="M3143.75,126.25c-.48,0-.87-.39-.87-.87v-27.52c0-.48.39-.87.87-.87s.87.39.87.87v27.52c0,.48-.39.87-.87.87Z"/>
        <path class="st8" d="M3162.74,126.25c-.48,0-.87-.39-.87-.87v-33.16c0-.48.39-.87.87-.87s.87.39.87.87v33.16c0,.48-.39.87-.87.87Z"/>
        <path class="st8" d="M3156.16,112.68c-2.89,0-5.24-2.35-5.24-5.24s2.35-5.24,5.24-5.24,5.24,2.35,5.24,5.24-2.35,5.24-5.24,5.24ZM3156.16,103.93c-1.93,0-3.5,1.57-3.5,3.5s1.57,3.5,3.5,3.5,3.5-1.57,3.5-3.5-1.57-3.5-3.5-3.5Z"/>
        <path class="st8" d="M3162.49,114.71c-.22,0-.45-.09-.62-.26l-6.34-6.4c-.34-.34-.33-.89,0-1.23.34-.34.89-.33,1.23,0l6.34,6.4c.34.34.33.89,0,1.23-.17.17-.39.25-.61.25Z"/>
        <path class="st8" d="M3182.85,126.25c-.48,0-.87-.39-.87-.87v-17.56l-3.56-3.25c-.35-.32-.38-.87-.06-1.23.32-.35.87-.38,1.23-.06l3.85,3.5c.18.16.28.4.28.64v17.94c0,.48-.39.87-.87.87Z"/>
        <path class="st8" d="M3182.85,108.31c-.27,0-.53-.12-.7-.36-.28-.39-.2-.93.19-1.21l4.83-3.5c.39-.28.93-.19,1.21.19.28.39.2.93-.19,1.21l-4.83,3.5c-.15.11-.33.17-.51.17Z"/>
        <path class="st8" d="M3150.65,125.52c-.22,0-.44-.08-.61-.25l-2.24-2.24c-.34-.34-.34-.89,0-1.23.34-.34.89-.34,1.23,0l2.24,2.24c.34.34.34.89,0,1.23-.17.17-.39.25-.61.25Z"/>
        <path class="st8" d="M3150.37,125.52c-.22,0-.44-.08-.61-.25-.34-.34-.34-.89,0-1.23l2.24-2.24c.34-.34.89-.34,1.23,0,.34.34.34.89,0,1.23l-2.24,2.24c-.17.17-.39.25-.61.25Z"/>
        <path class="st8" d="M3169.89,125.52c-.22,0-.44-.08-.61-.25l-3.53-3.53c-.34-.34-.34-.89,0-1.23.34-.34.89-.34,1.23,0l3.53,3.53c.34.34.34.89,0,1.23-.17.17-.39.25-.61.25Z"/>
        <path class="st8" d="M3169.45,125.52c-.22,0-.44-.08-.61-.25-.34-.34-.34-.89,0-1.23l3.53-3.53c.34-.34.89-.34,1.23,0,.34.34.34.89,0,1.23l-3.53,3.53c-.17.17-.39.25-.61.25Z"/>
        <path class="st8" d="M3177.48,125.52c-.22,0-.44-.08-.61-.25l-2.24-2.24c-.34-.34-.34-.89,0-1.23.34-.34.89-.34,1.23,0l2.24,2.24c.34.34.34.89,0,1.23-.17.17-.39.25-.61.25Z"/>
        <path class="st8" d="M3177.2,125.52c-.22,0-.44-.08-.61-.25-.34-.34-.34-.89,0-1.23l2.24-2.24c.34-.34.89-.34,1.23,0,.34.34.34.89,0,1.23l-2.24,2.24c-.17.17-.39.25-.61.25Z"/>
      </g>
      <rect class="st1" x="3291.33" y="153.97" width="210" height="55"/>
      <text class="st2" transform="translate(3368.88 235.62)"><tspan x="0" y="0">4 PHÚT</tspan></text>
      <rect class="st1" x="3523.18" y="153.97" width="210" height="55"/>
      <text class="st2" transform="translate(3601.64 235.62)"><tspan x="0" y="0">7 PHÚT</tspan></text>
      <path class="st8" d="M3663.05,86.3c-.06-.28-.29-.49-.57-.53-.28-.03-.56.11-.69.37-.19.39-.44.75-.74,1.05-.22.22-.55.24-1.07.25-.06,0-.12,0-.18,0-.14,0-2.85,0-7.63,0l1.13-4.18c.32-.07.65-.18,1.01-.36.2-.1.42-.21.63-.37.46-.35,1.48-1.41.99-3.74-.06-.28-.29-.49-.57-.53-.28-.04-.56.11-.69.37-.19.39-.44.75-.74,1.05-.22.22-.55.24-1.07.25-.06,0-.12,0-.18,0-.12,0-1.78,0-4.69,0l.76-3.91c.31-.07.63-.18.98-.35.2-.1.42-.21.63-.37.46-.35,1.48-1.41.99-3.74-.06-.28-.29-.49-.57-.53-.28-.03-.56.11-.69.37-.19.39-.44.75-.74,1.05-.22.22-.55.24-1.07.25-.06,0-.12,0-.18,0-.23,0-5.76,0-14.47.01-2.49-2.85-4.76-5.46-4.78-5.48-.13-.15-.31-.23-.51-.23h0c-.19,0-.38.08-.51.23-.02.02-2.29,2.63-4.78,5.48-8.57,0-14.24,0-14.47-.01-.06,0-.12,0-.18,0-.52,0-.85-.03-1.07-.25-.3-.31-.55-.66-.74-1.05-.13-.26-.4-.4-.69-.37-.28.04-.51.25-.57.53-.49,2.33.53,3.39.99,3.74.21.16.44.27.63.37.35.17.67.28.98.35l.76,3.91c-2.91,0-4.57,0-4.69,0-.06,0-.12,0-.18,0-.52,0-.85-.03-1.07-.25-.3-.31-.55-.66-.74-1.05-.13-.26-.4-.41-.69-.37-.28.04-.51.25-.57.53-.49,2.33.53,3.39.99,3.74.21.16.44.27.63.37.36.18.69.29,1.01.36l1.13,4.18c-5,0-7.83,0-7.98,0-.06,0-.12,0-.18,0-.52,0-.85-.03-1.07-.25-.3-.31-.55-.66-.74-1.05-.13-.26-.4-.4-.69-.37-.28.04-.51.25-.57.53-.49,2.33.53,3.39.99,3.74.21.16.44.27.63.37.36.18.69.29,1.01.36l2.35,8.68h-.51c-.37,0-.67.3-.67.67v1.76c0,.37.3.67.67.67h.71v20.31h-.71c-.37,0-.67.3-.67.67v1.76c0,.37.3.67.67.67h8.79v2.21c-.34.03-.61.32-.61.67v1.76c0,.37.3.67.67.67h15.6s.02,0,.04,0h5.91s9.26,0,9.26,0h12.58c.37,0,.67-.3.67-.67v-1.76c0-.35-.27-.64-.61-.67v-2.21h8.66c.37,0,.67-.3.67-.67v-1.76c0-.37-.3-.67-.67-.67h-.71v-20.31h.71c.37,0,.67-.3.67-.67v-1.76c0-.37-.3-.67-.67-.67h-.69l2.35-8.68c.32-.07.65-.18,1.01-.36.2-.1.42-.21.63-.37.46-.35,1.48-1.41.99-3.74ZM3654.52,90.89c-.1.54-.18.74-.51,1.05-.33.31-.79.54-1.37.68-.64.16-1.11.11-1.54-.16-.35-.22-.66-.54-.99-.88-.1-.1-.2-.21-.3-.3-.13-.13-.25-.25-.38-.38h5.09ZM3650.78,87.46c-1.36,0-2.86,0-4.5,0-.19-.22-.38-.43-.57-.65-1.01-1.15-1.99-2.3-2.93-3.41h8.9s.08,0,.11,0c.03,0,.06,0,.09,0l-1.1,4.07ZM3646.63,79.96c-1.87,0-4.13,0-6.73,0-.51-.61-1.04-1.23-1.56-1.83-.5-.57-1.08-1.24-1.7-1.95h10.47s.07,0,.11,0c.05,0,.1,0,.16,0l-.74,3.79ZM3628.35,68.73c1.11,1.27,3.85,4.42,6.28,7.2,0,0,0,0,0,.01.99,1.14,1.93,2.21,2.68,3.07.58.66,1.16,1.35,1.72,2.03.01.02.03.04.05.05.13.15.26.31.39.46.28.34.56.68.85,1.01,1.37,1.62,2.84,3.37,4.37,5.12,1.37,1.57,2.72,3.1,4.17,4.54.09.09.19.19.28.29.35.36.75.78,1.24,1.08.74.47,1.58.57,2.58.33.63-.16,1.18-.4,1.62-.72-.11.45-.25.89-.5,1.22-.43.58-1.23,1.15-2.13,1.54-.89.38-1.81.52-2.72.57l-20.37-23.36c-.13-.15-.31-.23-.51-.23s-.38.08-.51.23l-20.37,23.36c-.91-.05-1.84-.2-2.72-.57-.9-.38-1.69-.96-2.13-1.54-.25-.33-.39-.77-.5-1.22.45.33.99.57,1.62.72,1,.25,1.84.14,2.58-.33.49-.31.89-.72,1.24-1.08.09-.1.19-.19.28-.29,1.45-1.44,2.8-2.97,4.17-4.54,1.53-1.75,3.01-3.5,4.37-5.12.28-.34.57-.67.85-1.01.7-.84,1.43-1.71,2.16-2.54.72-.83,1.62-1.86,2.57-2.95.11-.07.19-.16.24-.28,2.4-2.75,5.07-5.81,6.16-7.06ZM3637.61,115.5c-4.28-1.08-8.63-8.52-8.67-8.59-.12-.21-.34-.33-.58-.33s-.46.13-.58.33c-.04.08-4.39,7.51-8.67,8.59-.3.08-.51.34-.51.65v13.77h-5.31v-1.09c0-.35-.27-.64-.61-.67v-28.51c.34-.03.61-.32.61-.67v-1.09h30.1v1.09c0,.35.27.64.61.67v28.51c-.34.03-.61.32-.61.67v1.09h-5.26v-13.77c0-.31-.21-.58-.51-.65ZM3644.66,96.56h-35.43l19.12-21.92,19.12,21.92h-2.81ZM3607.92,99.66h3.41v28.5h-3.41v-28.5ZM3645.33,128.16v-28.5h3.41v28.5h-3.41ZM3607.27,90.89c-.13.13-.25.26-.38.38-.1.1-.2.2-.3.3-.33.34-.64.66-.99.88-.42.27-.9.31-1.54.16-.57-.14-1.03-.37-1.37-.68-.33-.31-.42-.51-.51-1.05h5.09ZM3609.34,76.17c.05,0,.1,0,.16,0h10.58c-.62.71-1.2,1.38-1.7,1.95-.53.6-1.05,1.22-1.56,1.83-2.6,0-4.86,0-6.73,0l-.74-3.79ZM3604.83,83.39s.06,0,.09,0h9.01c-.94,1.11-1.92,2.26-2.93,3.41-.19.22-.38.44-.57.65-1.63,0-3.13,0-4.5,0l-1.1-4.07ZM3597.37,90.89s.06,0,.09,0h3.33c-.21.78-.22,1.46-.03,2.34.15.68.35,1.4.79,1.99.82,1.1,2.14,1.74,2.68,1.97.58.25,1.17.41,1.74.52v1.28c0,.18.07.34.18.46h-6.46l-2.32-8.56ZM3599.84,102.55h6.73v20.31h-6.73v-20.31ZM3635.11,129.92v-11.31c0-.3-.2-.56-.48-.64-2.31-.69-4.89-4.66-5.69-6.13-.12-.22-.34-.35-.59-.35h0c-.25,0-.47.13-.59.35-.8,1.47-3.38,5.44-5.69,6.13-.28.09-.48.35-.48.64v11.31s-1.66,0-1.66,0v-13.27c3.69-1.27,7.09-6.07,8.42-8.13,1.33,2.06,4.73,6.85,8.42,8.13v13.27h-1.66ZM3656.69,122.85h-6.6v-20.31h6.6v20.31ZM3656.67,99.45h-6.15c.11-.12.18-.28.18-.46v-1.27c.59-.11,1.19-.27,1.79-.52.53-.23,1.85-.87,2.68-1.97.45-.6.64-1.31.79-1.99.19-.89.19-1.57-.03-2.34h2.87s.08,0,.11,0c.03,0,.06,0,.09,0l-2.32,8.56Z"/>
      <text class="st3" transform="translate(2831.6 175.69)"><tspan x="0" y="0">SIÊU THỊ CO.OPMART</tspan><tspan x="66.26" y="21.6">PLEIKU</tspan></text>
      <text class="st3" transform="translate(2415.93 175.69)"><tspan x="0" y="0">BỆNH VIỆN</tspan><tspan x="-29.58" y="21.6">ĐA KHOA GIA LAI</tspan></text>
      <text class="st3" transform="translate(2144.14 175.69)"><tspan x="0" y="0">BỆNH VIỆN Y DƯỢC</tspan><tspan x=".44" y="21.6">CỔ TRUYỀN GIA LAI</tspan></text>
      <text class="st3" transform="translate(2624.18 178.86)"><tspan x="0" y="0">BỆNH VIỆN MẮT</tspan><tspan x="12.34" y="21.6">CAO NGUYÊN</tspan></text>
      <text class="st3" transform="translate(3110.63 175.69)"><tspan x="0" y="0">CÔNG VIÊN</tspan><tspan x="-1.48" y="21.6">DIÊN HỒNG</tspan></text>
      <text class="st3" transform="translate(3374.94 175.69)"><tspan x="0" y="0">CHỢ</tspan><tspan x="-14.01" y="21.6">TRÀ BÁ</tspan></text>
      <text class="st3" transform="translate(3600.4 175.66)"><tspan x="0" y="0">CHÙA</tspan><tspan x="-29.9" y="21.6">BỬU THẮNG</tspan></text>
      <text class="st2" transform="translate(2525.49 521.5)"><tspan x="0" y="0">8 PHÚT</tspan></text>
      <text class="st2" transform="translate(2901.65 521.5)"><tspan x="0" y="0">10 PHÚT</tspan></text>
      <text class="st2" transform="translate(3281.13 521.5)"><tspan x="0" y="0">13 PHÚT</tspan></text>
      <path class="st8" d="M2967.49,382.19c-.06-.28-.29-.49-.57-.53-.28-.03-.56.11-.69.37-.19.39-.44.75-.74,1.05-.22.22-.55.24-1.07.25-.06,0-.12,0-.18,0-.14,0-2.85,0-7.63,0l1.13-4.18c.32-.07.65-.18,1.01-.36.2-.1.42-.21.63-.37.46-.35,1.48-1.41.99-3.74-.06-.28-.29-.49-.57-.53-.28-.04-.56.11-.69.37-.19.39-.44.75-.74,1.05-.22.22-.55.24-1.07.25-.06,0-.12,0-.18,0-.12,0-1.78,0-4.69,0l.76-3.91c.31-.07.63-.18.98-.35.2-.1.42-.21.63-.37.46-.35,1.48-1.41.99-3.74-.06-.28-.29-.49-.57-.53-.28-.03-.56.11-.69.37-.19.39-.44.75-.74,1.05-.22.22-.55.24-1.07.25-.06,0-.12,0-.18,0-.23,0-5.76,0-14.47.01-2.49-2.85-4.76-5.46-4.78-5.48-.13-.15-.31-.23-.51-.23h0c-.19,0-.38.08-.51.23-.02.02-2.29,2.63-4.78,5.48-8.57,0-14.24,0-14.47-.01-.06,0-.12,0-.18,0-.52,0-.85-.03-1.07-.25-.3-.31-.55-.66-.74-1.05-.13-.26-.4-.4-.69-.37-.28.04-.51.25-.57.53-.49,2.33.53,3.39.99,3.74.21.16.44.27.63.37.35.17.67.28.98.35l.76,3.91c-2.91,0-4.57,0-4.69,0-.06,0-.12,0-.18,0-.52,0-.85-.03-1.07-.25-.3-.31-.55-.66-.74-1.05-.13-.26-.4-.41-.69-.37-.28.04-.51.25-.57.53-.49,2.33.53,3.39.99,3.74.21.16.44.27.63.37.36.18.69.29,1.01.36l1.13,4.18c-5,0-7.83,0-7.98,0-.06,0-.12,0-.18,0-.52,0-.85-.03-1.07-.25-.3-.31-.55-.66-.74-1.05-.13-.26-.4-.4-.69-.37-.28.04-.51.25-.57.53-.49,2.33.53,3.39.99,3.74.21.16.44.27.63.37.36.18.69.29,1.01.36l2.35,8.68h-.51c-.37,0-.67.3-.67.67v1.76c0,.37.3.67.67.67h.71v20.31h-.71c-.37,0-.67.3-.67.67v1.76c0,.37.3.67.67.67h8.79v2.21c-.34.03-.61.32-.61.67v1.76c0,.37.3.67.67.67h15.6s.02,0,.04,0h5.91s9.26,0,9.26,0h12.58c.37,0,.67-.3.67-.67v-1.76c0-.35-.27-.64-.61-.67v-2.21h8.66c.37,0,.67-.3.67-.67v-1.76c0-.37-.3-.67-.67-.67h-.71v-20.31h.71c.37,0,.67-.3.67-.67v-1.76c0-.37-.3-.67-.67-.67h-.69l2.35-8.68c.32-.07.65-.18,1.01-.36.2-.1.42-.21.63-.37.46-.35,1.48-1.41.99-3.74ZM2958.96,386.77c-.1.54-.18.74-.51,1.05-.33.31-.79.54-1.37.68-.64.16-1.11.11-1.54-.16-.35-.22-.66-.54-.99-.88-.1-.1-.2-.21-.3-.3-.13-.13-.25-.25-.38-.38h5.09ZM2955.22,383.34c-1.36,0-2.86,0-4.5,0-.19-.22-.38-.43-.57-.65-1.01-1.15-1.99-2.3-2.93-3.41h8.9s.08,0,.11,0c.03,0,.06,0,.09,0l-1.1,4.07ZM2951.07,375.84c-1.87,0-4.13,0-6.73,0-.51-.61-1.04-1.23-1.56-1.83-.5-.57-1.08-1.24-1.7-1.95h10.47s.07,0,.11,0c.05,0,.1,0,.16,0l-.74,3.79ZM2932.8,364.61c1.11,1.27,3.85,4.42,6.28,7.2,0,0,0,0,0,.01.99,1.14,1.93,2.21,2.68,3.07.58.66,1.16,1.35,1.72,2.03.01.02.03.04.05.05.13.15.26.31.39.46.28.34.56.68.85,1.01,1.37,1.62,2.84,3.37,4.37,5.12,1.37,1.57,2.72,3.1,4.17,4.54.09.09.19.19.28.29.35.36.75.78,1.24,1.08.74.47,1.58.57,2.58.33.63-.16,1.18-.4,1.62-.72-.11.45-.25.89-.5,1.22-.43.58-1.23,1.15-2.13,1.54-.89.38-1.81.52-2.72.57l-20.37-23.36c-.13-.15-.31-.23-.51-.23s-.38.08-.51.23l-20.37,23.36c-.91-.05-1.84-.2-2.72-.57-.9-.38-1.69-.96-2.13-1.54-.25-.33-.39-.77-.5-1.22.45.33.99.57,1.62.72,1,.25,1.84.14,2.58-.33.49-.31.89-.72,1.24-1.08.09-.1.19-.19.28-.29,1.45-1.44,2.8-2.97,4.17-4.54,1.53-1.75,3.01-3.5,4.37-5.12.28-.34.57-.67.85-1.01.7-.84,1.43-1.71,2.16-2.54.72-.83,1.62-1.86,2.57-2.95.11-.07.19-.16.24-.28,2.4-2.75,5.07-5.81,6.16-7.06ZM2942.05,411.38c-4.28-1.08-8.63-8.52-8.67-8.59-.12-.21-.34-.33-.58-.33s-.46.13-.58.33c-.04.08-4.39,7.51-8.67,8.59-.3.08-.51.34-.51.65v13.77h-5.31v-1.09c0-.35-.27-.64-.61-.67v-28.51c.34-.03.61-.32.61-.67v-1.09h30.1v1.09c0,.35.27.64.61.67v28.51c-.34.03-.61.32-.61.67v1.09h-5.26v-13.77c0-.31-.21-.58-.51-.65ZM2949.11,392.44h-35.43l19.12-21.92,19.12,21.92h-2.81ZM2912.37,395.54h3.41v28.5h-3.41v-28.5ZM2949.78,424.04v-28.5h3.41v28.5h-3.41ZM2911.72,386.77c-.13.13-.25.26-.38.38-.1.1-.2.2-.3.3-.33.34-.64.66-.99.88-.42.27-.9.31-1.54.16-.57-.14-1.03-.37-1.37-.68-.33-.31-.42-.51-.51-1.05h5.09ZM2913.78,372.05c.05,0,.1,0,.16,0h10.58c-.62.71-1.2,1.38-1.7,1.95-.53.6-1.05,1.22-1.56,1.83-2.6,0-4.86,0-6.73,0l-.74-3.79ZM2909.27,379.27s.06,0,.09,0h9.01c-.94,1.11-1.92,2.26-2.93,3.41-.19.22-.38.44-.57.65-1.63,0-3.13,0-4.5,0l-1.1-4.07ZM2901.81,386.77s.06,0,.09,0h3.33c-.21.78-.22,1.46-.03,2.34.15.68.35,1.4.79,1.99.82,1.1,2.14,1.74,2.68,1.97.58.25,1.17.41,1.74.52v1.28c0,.18.07.34.18.46h-6.46l-2.32-8.56ZM2904.29,398.43h6.73v20.31h-6.73v-20.31ZM2939.56,425.8v-11.31c0-.3-.2-.56-.48-.64-2.31-.69-4.89-4.66-5.69-6.13-.12-.22-.34-.35-.59-.35h0c-.25,0-.47.13-.59.35-.8,1.47-3.38,5.44-5.69,6.13-.28.09-.48.35-.48.64v11.31s-1.66,0-1.66,0v-13.27c3.69-1.27,7.09-6.07,8.42-8.13,1.33,2.06,4.73,6.85,8.42,8.13v13.27h-1.66ZM2961.13,418.73h-6.6v-20.31h6.6v20.31ZM2961.11,395.33h-6.15c.11-.12.18-.28.18-.46v-1.27c.59-.11,1.19-.27,1.79-.52.53-.23,1.85-.87,2.68-1.97.45-.6.64-1.31.79-1.99.19-.89.19-1.57-.03-2.34h2.87s.08,0,.11,0c.03,0,.06,0,.09,0l-2.32,8.56Z"/>
      <g>
        <path class="st8" d="M3303.44,374.47c.82,2.96,3.45,5.04,6.5,5.04,1.08,0,2.11-.26,3.05-.75,1.51,2.01,3.86,3.22,6.37,3.22,4.26,0,7.76-3.43,8.04-7.74.1-.16.15-.35.15-.55,0-.59-.48-1.07-1.07-1.07h-.11c-.28-.01-.57.1-.78.3-.21.2-.32.48-.32.77,0,0,0,.02,0,.03-.01,3.38-2.66,6.13-5.9,6.13-2.1,0-4.05-1.18-5.11-3.07-.15-.27-.41-.47-.72-.53-.31-.06-.62,0-.87.2-.79.61-1.73.93-2.72.93-2.24,0-4.14-1.67-4.53-3.96-.08-.44-.42-.79-.86-.88-2.35-.44-4.05-2.56-4.05-5.05,0-.59-.48-1.07-1.07-1.07s-1.07.48-1.07,1.07c0,3.27,2.1,6.1,5.1,6.99Z"/>
        <path class="st8" d="M3308.28,370.23c.59,0,1.07-.48,1.07-1.07,0-3.6,2.93-6.52,6.52-6.52s6.52,2.93,6.52,6.53c0,.44.27.84.68,1,.41.16.88.05,1.18-.27,1.78-1.94,4.81-2.06,6.75-.28.93.86,1.48,2.03,1.54,3.3v8.6c0,.59.48,1.07,1.07,1.07s1.07-.48,1.07-1.07v-8.62s0-.03,0-.04c-.08-1.85-.87-3.56-2.23-4.81-2.28-2.1-5.61-2.38-8.16-.9-.91-3.81-4.35-6.65-8.43-6.65-4.78,0-8.67,3.89-8.67,8.67,0,.59.48,1.07,1.07,1.07Z"/>
        <rect class="st8" x="3324.22" y="385.23" width="18.4" height="7.8"/>
        <path class="st8" d="M3348.3,427.43h-7.86v-32.31h-14.03v32.31h-2.19v-20.43l-19.53-18.6v20.01l-21.67-20.01v39.04h-7.57c-.59,0-1.07.48-1.07,1.07s.48,1.07,1.07,1.07h72.85c.59,0,1.07-.48,1.07-1.07s-.48-1.07-1.07-1.07ZM3308.76,403.71c0-.59.48-1.07,1.07-1.07s1.07.48,1.07,1.07v23.72h-2.15v-23.72ZM3287.14,403.71c0-.59.48-1.07,1.07-1.07s1.07.48,1.07,1.07v23.72h-2.15v-23.72Z"/>
      </g>
      <rect class="st1" x="2390.87" y="437.71" width="325" height="55"/>
      <rect class="st1" x="2770.12" y="437.71" width="325" height="55"/>
      <rect class="st1" x="3149.38" y="437.71" width="325" height="55"/>
      <text class="st3" transform="translate(2477.99 461.21)"><tspan x="0" y="0">SÂN VẬN ĐỘNG</tspan><tspan x="40.47" y="21.6">PLEIKU</tspan></text>
      <text class="st3" transform="translate(2904.85 461.54)"><tspan x="0" y="0">CHÙA</tspan><tspan x="-35.14" y="21.6">MINH THÀNH</tspan></text>
      <text class="st3" transform="translate(3220.29 461.54)"><tspan x="0" y="0">KHU CÔNG NGHIỆP</tspan><tspan x="55.44" y="21.6">TRÀ ĐA</tspan></text>
      <path class="st8" d="M2553.37,416.68c4.44,0,8.76-.82,12.77-2.39.73-.29,1.46-.6,2.17-.93,3.6-1.7,6.91-4.03,9.81-6.92,5.83-5.83,9.35-13.36,10.1-21.47.1-1.08.15-2.18.15-3.28,0-2.56-.28-5.09-.81-7.53-1.41-6.47-4.64-12.42-9.44-17.21-6.61-6.61-15.4-10.25-24.75-10.25s-18.14,3.64-24.75,10.25c-6.61,6.61-10.25,15.4-10.25,24.75s3.64,18.14,10.25,24.75c6.61,6.61,15.4,10.25,24.75,10.25ZM2553.37,350.46c.47,0,.94.01,1.4.03l-2.84,3.27c-7.49,0-13.16,3.47-15.07,4.82l-3.99-.45c5.68-4.96,12.88-7.67,20.5-7.67ZM2575.45,359.61c3.76,3.76,6.44,8.32,7.89,13.28l-3.87-1.16c-.84-2.6-2.67-5.45-5.43-8.5-1.95-2.15-3.7-3.64-4.1-3.98l-.48-4.35c2.16,1.3,4.17,2.87,5.99,4.7ZM2573.71,405.37l-13.97-.77-3.21-8.5,8.67-9.58c.72-.19,7.98-2.09,10.99-2.95l5.28,11.75c-1.5,3.09-3.52,5.93-6.02,8.43-.56.56-1.14,1.1-1.74,1.61ZM2537.11,359.84c1.16-.87,7.04-4.92,14.85-4.91l7.17,7.59c-.08.08-.14.18-.17.29l-2.7,11.93c-.02.09-.02.17,0,.25l-11.38,2.48s0,0,0,0l-9.95-8.29c-.07-.06-.15-.09-.23-.11l2.41-9.22ZM2569.33,360.27c1.26,1.08,7.64,6.76,9.18,12.29,0,0,0,0,0,.02l-2.46,9.84c-2.47.71-8.61,2.33-10.58,2.84l-8.27-9.94c.09-.08.17-.19.2-.32l2.7-11.93c.02-.1.02-.19,0-.28l9.24-2.52ZM2534.88,396.68h0c.09,0,.18-.02.26-.06l8.27-4.21c.14-.07.23-.18.28-.32l11.71,4.34,3.23,8.55-8.71,7.75c-5.47-.6-10.63-2.61-15.04-5.87v-10.18ZM2534.05,369.89c.03.06.08.12.14.17l9.93,8.27-.92,12.97c-.1,0-.21.01-.3.06l-8.27,4.21c-.1.05-.18.13-.23.22l-8.77-5.28c-1.38-6.32-.41-13.37.07-16.11l8.36-4.52ZM2524.65,373.65c-.44,2.26-1.68,9.75-.25,16.73l-.79.79c-.96-3.03-1.46-6.22-1.46-9.48,0-3.82.68-7.53,1.98-11l.52,2.96Z"/>
    </g>
    <g>
      <g>
        <path class="st6" d="M182.72,182.43h1516.09c59.14,0,108.68,45.08,113.86,103.99,1,11.36,1.56,23.94,1.56,37.9,0,1.31,0,2.61-.01,3.9-.58,76.43-62.96,137.98-139.4,137.98H373.39s-167.58-2.94-167.58-2.94c-59.14,0-108.68,45.08-113.86,103.99-1,11.36-1.56,23.94-1.56,37.9,0,1.31,0,2.61.01,3.9.58,76.43,62.96,137.98,139.4,137.98h1460"/>
        <g>
          <polygon class="st1" points="164.39 203.77 165.32 202.7 182.72 185.46 130.67 185.46 112.05 203.77 164.39 203.77"/>
          <path class="st1" d="M112.05,161.79l18.62,17.7h52.04c-6.77-5.08-12.93-11.08-18.47-17.7h-52.19Z"/>
        </g>
        <polygon class="st1" points="1732.17 747.02 1672.48 771.42 1686.64 747.02 1672.48 722.64 1732.17 747.02"/>
      </g>
      <g>
        <path class="st8" d="M504.03,410.05h4.37v-9.51h5.86v9.51h4.37v-22.46h-14.59v22.46ZM505.78,393.17h11.1v1.47h-11.1v-1.47ZM505.78,396.07h11.1v1.47h-11.1v-1.47Z"/>
        <path class="st8" d="M471.25,381.96l7.82-7.72h-14.42l-8.01,7.5h-1.04c-.57,0-1.04.83-1.04,1.86v1.86h16.67v-3.51Z"/>
        <path class="st8" d="M459.94,410.05h4.32v-9.51h5.86v9.51h4.41v-22.46h-14.6v22.46ZM461.69,393.17h11.1v1.47h-11.1v-1.47ZM461.69,396.07h11.1v1.47h-11.1v-1.47Z"/>
        <path class="st8" d="M505.62,385.46v-2.56l-16.18-16.18-16.18,16.18v2.57s3.52,0,3.52,0v24.58h25.33v-24.59h3.52ZM493.72,401.67h-8.57v-8.57h8.57v8.57Z"/>
        <path class="st8" d="M523.53,381.74h-1.04l-8.01-7.5h-14.42l7.76,7.66.07,3.58h16.68v-1.86c0-1.03-.47-1.86-1.04-1.86Z"/>
      </g>
      <g>
        <text class="st2" transform="translate(733.42 233.36)"><tspan x="0" y="0">15 PHÚT</tspan></text>
        <text class="st2" transform="translate(352.28 233.36)"><tspan x="0" y="0">20 PHÚT</tspan></text>
        <text class="st2" transform="translate(1112.68 233.37)"><tspan x="0" y="0">15 PHÚT</tspan></text>
        <text class="st2" transform="translate(1490.04 233.37)"><tspan x="0" y="0">20 PHÚT</tspan></text>
        <g>
          <path class="st8" d="M797.2,134.18h-67.11c-.48,0-.87-.39-.87-.87s.39-.87.87-.87h67.11c.48,0,.87.39.87.87s-.39.87-.87.87Z"/>
          <path class="st8" d="M761.91,109.92c-4.64,0-8.41-4.33-8.41-9.65v-11.05c0-5.32,3.77-9.65,8.41-9.65s8.41,4.33,8.41,9.65v11.05c0,5.32-3.77,9.65-8.41,9.65ZM761.91,81.32c-3.68,0-6.68,3.55-6.68,7.91v11.05c0,4.36,3,7.91,6.68,7.91s6.68-3.55,6.68-7.91v-11.05c0-4.36-3-7.91-6.68-7.91Z"/>
          <path class="st8" d="M750.18,116.13h-14.52c-.05,0-.1,0-.15-.01-.74-.13-1.79-.4-2.44-1.25-1-1.31-.36-3.03.06-4.17.06-.17.12-.34.18-.49.18-.55.92-2.8,1.84-5.64,2.58-7.91,4.91-15.06,5.15-15.67.29-.74.98-2.43,2.62-2.39.03,0,.05,0,.08,0,1.59,0,2.25,1.67,2.54,2.39.24.61,2.59,7.8,5.18,15.76.91,2.8,1.63,5.01,1.81,5.55.05.15.11.32.18.49.13.34.27.73.38,1.13.13.46-.14.94-.6,1.07-.46.13-.94-.14-1.07-.6-.09-.34-.22-.67-.34-1-.07-.19-.14-.37-.19-.54-.18-.54-.9-2.76-1.82-5.57-1.83-5.63-4.9-15.04-5.14-15.66-.17-.42-.51-1.3-.94-1.3-.02,0-.04,0-.07,0s-.05,0-.07,0c-.43,0-.78.87-.94,1.3-.24.61-3.29,9.97-5.11,15.57-.93,2.85-1.66,5.11-1.85,5.66-.06.17-.12.35-.19.54-.32.88-.72,1.97-.3,2.52.2.27.62.46,1.28.58h14.44c.48,0,.87.39.87.87s-.39.87-.87.87Z"/>
          <path class="st8" d="M790.39,121.46h-14.39c-4.74,0-8.6-3.86-8.6-8.6,0-3.87,2.61-7.26,6.29-8.29,1.1-4.63,5.24-7.93,10.05-7.93,5.7,0,10.34,4.64,10.34,10.34,0,.89-.12,1.78-.35,2.65,1.82,1.18,2.93,3.18,2.93,5.39,0,3.45-2.67,6.25-6.11,6.42-.05,0-.1.01-.15.01ZM783.74,98.38c-4.16,0-7.71,2.97-8.46,7.06-.06.35-.33.62-.68.69-3.17.66-5.47,3.48-5.47,6.73,0,3.79,3.08,6.87,6.87,6.87h14.27s.06,0,.09,0c2.55-.08,4.55-2.14,4.55-4.69,0-1.79-1-3.4-2.61-4.2-.39-.19-.58-.65-.43-1.06.31-.91.47-1.85.47-2.78,0-4.74-3.86-8.6-8.6-8.6Z"/>
          <path class="st8" d="M742.92,133.98c-.48,0-.87-.39-.87-.87v-27.52c0-.48.39-.87.87-.87s.87.39.87.87v27.52c0,.48-.39.87-.87.87Z"/>
          <path class="st8" d="M761.91,133.98c-.48,0-.87-.39-.87-.87v-33.16c0-.48.39-.87.87-.87s.87.39.87.87v33.16c0,.48-.39.87-.87.87Z"/>
          <path class="st8" d="M755.33,120.41c-2.89,0-5.24-2.35-5.24-5.24s2.35-5.24,5.24-5.24,5.24,2.35,5.24,5.24-2.35,5.24-5.24,5.24ZM755.33,111.67c-1.93,0-3.5,1.57-3.5,3.5s1.57,3.5,3.5,3.5,3.5-1.57,3.5-3.5-1.57-3.5-3.5-3.5Z"/>
          <path class="st8" d="M761.66,122.44c-.22,0-.45-.09-.62-.26l-6.34-6.4c-.34-.34-.33-.89,0-1.23.34-.34.89-.33,1.23,0l6.34,6.4c.34.34.33.89,0,1.23-.17.17-.39.25-.61.25Z"/>
          <path class="st8" d="M782.02,133.98c-.48,0-.87-.39-.87-.87v-17.56l-3.56-3.25c-.35-.32-.38-.87-.06-1.23.32-.35.87-.38,1.23-.06l3.85,3.5c.18.16.28.4.28.64v17.94c0,.48-.39.87-.87.87Z"/>
          <path class="st8" d="M782.02,116.04c-.27,0-.53-.12-.7-.36-.28-.39-.2-.93.19-1.21l4.83-3.5c.39-.28.93-.19,1.21.19.28.39.2.93-.19,1.21l-4.83,3.5c-.15.11-.33.17-.51.17Z"/>
          <path class="st8" d="M749.82,133.25c-.22,0-.44-.08-.61-.25l-2.24-2.24c-.34-.34-.34-.89,0-1.23.34-.34.89-.34,1.23,0l2.24,2.24c.34.34.34.89,0,1.23-.17.17-.39.25-.61.25Z"/>
          <path class="st8" d="M749.54,133.25c-.22,0-.44-.08-.61-.25-.34-.34-.34-.89,0-1.23l2.24-2.24c.34-.34.89-.34,1.23,0,.34.34.34.89,0,1.23l-2.24,2.24c-.17.17-.39.25-.61.25Z"/>
          <path class="st8" d="M769.06,133.25c-.22,0-.44-.08-.61-.25l-3.53-3.53c-.34-.34-.34-.89,0-1.23.34-.34.89-.34,1.23,0l3.53,3.53c.34.34.34.89,0,1.23-.17.17-.39.25-.61.25Z"/>
          <path class="st8" d="M768.62,133.25c-.22,0-.44-.08-.61-.25-.34-.34-.34-.89,0-1.23l3.53-3.53c.34-.34.89-.34,1.23,0,.34.34.34.89,0,1.23l-3.53,3.53c-.17.17-.39.25-.61.25Z"/>
          <path class="st8" d="M776.65,133.25c-.22,0-.44-.08-.61-.25l-2.24-2.24c-.34-.34-.34-.89,0-1.23.34-.34.89-.34,1.23,0l2.24,2.24c.34.34.34.89,0,1.23-.17.17-.39.25-.61.25Z"/>
          <path class="st8" d="M776.37,133.25c-.22,0-.44-.08-.61-.25-.34-.34-.34-.89,0-1.23l2.24-2.24c.34-.34.89-.34,1.23,0,.34.34.34.89,0,1.23l-2.24,2.24c-.17.17-.39.25-.61.25Z"/>
        </g>
        <g>
          <path class="st8" d="M417.94,134.19h-67.11c-.48,0-.87-.39-.87-.87s.39-.87.87-.87h67.11c.48,0,.87.39.87.87s-.39.87-.87.87Z"/>
          <path class="st8" d="M382.65,109.93c-4.64,0-8.41-4.33-8.41-9.65v-11.05c0-5.32,3.77-9.65,8.41-9.65s8.41,4.33,8.41,9.65v11.05c0,5.32-3.77,9.65-8.41,9.65ZM382.65,81.33c-3.68,0-6.68,3.55-6.68,7.91v11.05c0,4.36,3,7.91,6.68,7.91s6.68-3.55,6.68-7.91v-11.05c0-4.36-3-7.91-6.68-7.91Z"/>
          <path class="st8" d="M370.93,116.14h-14.52c-.05,0-.1,0-.15-.01-.74-.13-1.79-.4-2.44-1.25-1-1.31-.36-3.03.06-4.17.06-.17.12-.34.18-.49.18-.55.92-2.8,1.84-5.64,2.58-7.91,4.91-15.06,5.15-15.67.29-.74.98-2.43,2.62-2.39.03,0,.05,0,.08,0,1.59,0,2.25,1.67,2.54,2.39.24.61,2.59,7.8,5.18,15.76.91,2.8,1.63,5.01,1.81,5.55.05.15.11.32.18.49.13.34.27.73.38,1.13.13.46-.14.94-.6,1.07-.46.13-.94-.14-1.07-.6-.09-.34-.22-.67-.34-1-.07-.19-.14-.37-.19-.54-.18-.54-.9-2.76-1.82-5.57-1.83-5.63-4.9-15.04-5.14-15.66-.17-.42-.51-1.3-.94-1.3-.02,0-.04,0-.07,0s-.05,0-.07,0c-.43,0-.78.87-.94,1.3-.24.61-3.29,9.97-5.11,15.57-.93,2.85-1.66,5.11-1.85,5.66-.06.17-.12.35-.19.54-.32.88-.72,1.97-.3,2.52.2.27.62.46,1.28.58h14.44c.48,0,.87.39.87.87s-.39.87-.87.87Z"/>
          <path class="st8" d="M411.13,121.47h-14.39c-4.74,0-8.6-3.86-8.6-8.6,0-3.87,2.61-7.26,6.29-8.29,1.1-4.63,5.24-7.93,10.05-7.93,5.7,0,10.34,4.64,10.34,10.34,0,.89-.12,1.78-.35,2.65,1.82,1.18,2.93,3.18,2.93,5.39,0,3.45-2.67,6.25-6.11,6.42-.05,0-.1.01-.15.01ZM404.48,98.39c-4.16,0-7.71,2.97-8.46,7.06-.06.35-.33.62-.68.69-3.17.66-5.47,3.48-5.47,6.73,0,3.79,3.08,6.87,6.87,6.87h14.27s.06,0,.09,0c2.55-.08,4.55-2.14,4.55-4.69,0-1.79-1-3.4-2.61-4.2-.39-.19-.58-.65-.43-1.06.31-.91.47-1.85.47-2.78,0-4.74-3.86-8.6-8.6-8.6Z"/>
          <path class="st8" d="M363.67,133.99c-.48,0-.87-.39-.87-.87v-27.52c0-.48.39-.87.87-.87s.87.39.87.87v27.52c0,.48-.39.87-.87.87Z"/>
          <path class="st8" d="M382.65,133.99c-.48,0-.87-.39-.87-.87v-33.16c0-.48.39-.87.87-.87s.87.39.87.87v33.16c0,.48-.39.87-.87.87Z"/>
          <path class="st8" d="M376.07,120.42c-2.89,0-5.24-2.35-5.24-5.24s2.35-5.24,5.24-5.24,5.24,2.35,5.24,5.24-2.35,5.24-5.24,5.24ZM376.07,111.68c-1.93,0-3.5,1.57-3.5,3.5s1.57,3.5,3.5,3.5,3.5-1.57,3.5-3.5-1.57-3.5-3.5-3.5Z"/>
          <path class="st8" d="M382.41,122.45c-.22,0-.45-.09-.62-.26l-6.34-6.4c-.34-.34-.33-.89,0-1.23.34-.34.89-.33,1.23,0l6.34,6.4c.34.34.33.89,0,1.23-.17.17-.39.25-.61.25Z"/>
          <path class="st8" d="M402.77,133.99c-.48,0-.87-.39-.87-.87v-17.56l-3.56-3.25c-.35-.32-.38-.87-.06-1.23.32-.35.87-.38,1.23-.06l3.85,3.5c.18.16.28.4.28.64v17.94c0,.48-.39.87-.87.87Z"/>
          <path class="st8" d="M402.77,116.05c-.27,0-.53-.12-.7-.36-.28-.39-.2-.93.19-1.21l4.83-3.5c.39-.28.93-.19,1.21.19.28.39.2.93-.19,1.21l-4.83,3.5c-.15.11-.33.17-.51.17Z"/>
          <path class="st8" d="M370.57,133.26c-.22,0-.44-.08-.61-.25l-2.24-2.24c-.34-.34-.34-.89,0-1.23.34-.34.89-.34,1.23,0l2.24,2.24c.34.34.34.89,0,1.23-.17.17-.39.25-.61.25Z"/>
          <path class="st8" d="M370.29,133.26c-.22,0-.44-.08-.61-.25-.34-.34-.34-.89,0-1.23l2.24-2.24c.34-.34.89-.34,1.23,0,.34.34.34.89,0,1.23l-2.24,2.24c-.17.17-.39.25-.61.25Z"/>
          <path class="st8" d="M389.81,133.26c-.22,0-.44-.08-.61-.25l-3.53-3.53c-.34-.34-.34-.89,0-1.23.34-.34.89-.34,1.23,0l3.53,3.53c.34.34.34.89,0,1.23-.17.17-.39.25-.61.25Z"/>
          <path class="st8" d="M389.36,133.26c-.22,0-.44-.08-.61-.25-.34-.34-.34-.89,0-1.23l3.53-3.53c.34-.34.89-.34,1.23,0,.34.34.34.89,0,1.23l-3.53,3.53c-.17.17-.39.25-.61.25Z"/>
          <path class="st8" d="M397.4,133.26c-.22,0-.44-.08-.61-.25l-2.24-2.24c-.34-.34-.34-.89,0-1.23.34-.34.89-.34,1.23,0l2.24,2.24c.34.34.34.89,0,1.23-.17.17-.39.25-.61.25Z"/>
          <path class="st8" d="M397.11,133.26c-.22,0-.44-.08-.61-.25-.34-.34-.34-.89,0-1.23l2.24-2.24c.34-.34.89-.34,1.23,0,.34.34.34.89,0,1.23l-2.24,2.24c-.17.17-.39.25-.61.25Z"/>
        </g>
        <g>
          <path class="st8" d="M1176.59,86.27c-1.81-2.25-4.66-3-7.44-2.79-1.63.12-3.22.55-4.72,1.18-1.57.66-3.05,1.54-4.55,2.35-3.04,1.64-6.05,3.33-9.04,5.05-5.29-2.82-10.59-5.64-15.96-8.31-1.12-.56-2.24-1.11-3.38-1.62-.19-.08-.51-.11-.67.05-1.23,1.23-2.47,2.47-3.7,3.7-.15.15-.17.36-.02.53,1.36,1.49,2.71,2.98,4.07,4.47,2.16,2.37,4.32,4.75,6.48,7.12.38.42.77.84,1.15,1.27-1.42.89-2.84,1.78-4.24,2.68-4.13,2.65-8.22,5.38-12.21,8.26-.34.24-.67.49-1,.73-3.02-2.13-6.2-4.11-9.51-5.74-.16-.08-.3-.05-.43.06-1.12,1.06-2.25,2.11-3.37,3.17-.21.2-.16.57-.04.79,1.53,2.83,3.06,5.66,4.59,8.49.14.25.27.5.41.76-.66.85-1.22,1.82-1.21,2.93,0,1.09.56,2.06,1.42,2.7,1.97,1.47,4.39.73,6.48-.11.73,1.1,1.45,2.2,2.18,3.3.15.23.45.34.72.25.7-.24,1.41-.47,2.11-.71.21-.07.38-.21.39-.44.05-1.53,0-3.08-.12-4.61,6.04-2.54,12.04-5.19,17.95-8.02,1.63-.78,3.25-1.58,4.87-2.39.96,1.78,1.92,3.55,2.88,5.33,2.17,4.02,4.34,8.04,6.52,12.06.5.92,1,1.84,1.49,2.77.1.19.34.26.52.17,1.55-.75,3.11-1.49,4.66-2.24.04-.01.07-.03.1-.05.18-.12.22-.36.17-.59-.35-3.96-.96-7.91-1.54-11.85-.6-4.12-1.23-8.24-1.87-12.36,0-.05-.02-.1-.02-.15,2.95-1.71,5.87-3.49,8.73-5.34,1.4-.91,2.82-1.81,4.17-2.8,1.09-.8,2.15-1.69,2.96-2.78.8-1.08,1.35-2.36,1.33-3.73-.01-1.3-.5-2.52-1.31-3.52ZM1135.99,94.75c-2.16-2.37-4.32-4.75-6.48-7.12-.42-.46-.83-.91-1.25-1.37,1.06-1.06,2.13-2.13,3.19-3.19,2.16.99,4.28,2.09,6.4,3.17,2.88,1.48,5.75,2.98,8.62,4.5,1.16.61,2.32,1.23,3.48,1.85-3.47,2.01-6.9,4.06-10.3,6.17-1.22-1.34-2.43-2.67-3.65-4.01ZM1123.97,126.16c-.43.14-.85.29-1.28.43-1.09-1.65-2.18-3.3-3.27-4.95,1.34-.68,2.77-1.23,4.23-1.58.23,2.02.36,4.07.31,6.11ZM1162.59,123.1c.24,1.8.48,3.6.65,5.4-1.37.66-2.75,1.32-4.12,1.98-1.31-2.42-2.62-4.84-3.92-7.26-2.17-4.02-4.34-8.04-6.52-12.06-.11-.21-.23-.42-.34-.64-.02-.15-.09-.29-.19-.35-.22-.4-.43-.8-.65-1.2,3.55-2.47,7.57-4.33,11.56-5.96.17-.07.35-.14.52-.21.35,2.22.69,4.43,1.03,6.65.69,4.54,1.37,9.08,1.98,13.63ZM1174.4,94.31c-1.08.95-2.3,1.74-3.5,2.53-2.85,1.89-5.75,3.71-8.69,5.45-.56.33-1.12.66-1.68.99-.07-.42-.13-.85-.2-1.27-.05-.32-.31-.57-.63-.44-3.22,1.23-6.37,2.7-9.38,4.38-1.25.7-2.48,1.45-3.64,2.29-.29.21-.25.59-.1.87.24.45.49.9.73,1.35-5.84,2.93-11.78,5.66-17.78,8.26-1.54.67-3.09,1.32-4.64,1.98-.04-.41-.09-.81-.14-1.21,0-.02,0-.04-.01-.06,0-.02,0-.04-.02-.05-.06-.16-.21-.23-.36-.26-.13-.03-.28-.02-.41.02-1.92.38-3.83,1.12-5.55,2.05-.15.08-.35.32-.23.5.3.46.61.92.91,1.38-1.62.64-3.48,1.22-5.09.33-.63-.35-1.22-.93-1.31-1.68-.11-1,.59-1.93,1.19-2.66.19-.23.17-.54.04-.79-1.53-2.83-3.06-5.66-4.59-8.49l-.38-.7c.96-.9,1.91-1.8,2.87-2.7,3.29,1.64,6.45,3.62,9.45,5.75.08.06.25.07.33,0,3.64-2.67,7.38-5.21,11.16-7.68,4.94-3.22,9.96-6.32,15.04-9.31,2.83-1.67,5.68-3.3,8.55-4.89,1.5-.83,3-1.65,4.5-2.47,1.44-.77,2.87-1.62,4.39-2.21,2.16-.85,4.78-1.33,7.11-.76-1.62,1.02-3.24,2.04-4.86,3.05-.63.39.11,1.02.61.71,1.79-1.13,3.59-2.26,5.38-3.38.14.06.28.12.42.19,2.19,1.11,3.8,3.4,2.87,5.89-.46,1.22-1.39,2.22-2.35,3.06Z"/>
          <path class="st8" d="M1161.71,91.91c-.12-.08-.26-.13-.4-.12-.05,0-.1.01-.15.02-.09.02-.18.06-.25.11-.07.05-.15.09-.22.14-.09.06-.16.2-.16.3,0,.12.08.24.17.3.12.08.26.13.4.12.05,0,.1-.01.15-.02.09-.02.18-.06.25-.11.07-.05.15-.09.22-.14.09-.06.16-.2.16-.3,0-.12-.08-.24-.17-.3Z"/>
          <path class="st8" d="M1159.16,93.07c-.13-.02-.25.02-.36.08-.07.05-.15.09-.22.14-.12.07-.22.22-.27.35-.04.11-.07.28-.02.39.05.11.13.2.25.23.13.02.25-.02.36-.08.07-.05.15-.09.22-.14.12-.07.22-.22.27-.35.04-.11.07-.28.02-.39-.05-.11-.13-.2-.25-.23Z"/>
          <path class="st8" d="M1157,94.71c-.22-.18-.54-.23-.79-.08-.07.05-.15.09-.22.14-.1.06-.16.19-.15.3,0,.12.09.25.18.32.22.18.54.23.79.08.07-.05.15-.09.22-.14.1-.06.16-.19.15-.3,0-.12-.09-.25-.18-.32Z"/>
          <path class="st8" d="M1154,96.01c-.07.05-.15.09-.22.14-.11.07-.22.17-.26.29-.04.1-.03.24.05.33.18.21.53.2.76.06.07-.05.15-.09.22-.14.11-.07.22-.17.26-.29.04-.1.03-.24-.05-.33-.18-.21-.53-.2-.76-.06Z"/>
          <path class="st8" d="M1152.13,97.24c-.14-.01-.27.03-.38.1-.07.05-.15.09-.22.14-.12.07-.23.21-.28.34-.04.1-.06.26,0,.37.05.1.15.18.27.2.14.01.27-.03.38-.1.07-.05.15-.09.22-.14.12-.07.23-.21.28-.34.04-.1.06-.26,0-.37-.05-.1-.15-.18-.27-.2Z"/>
          <path class="st8" d="M1149.65,98.7c-.14-.02-.3-.01-.42.06-.07.05-.15.09-.22.14-.1.06-.19.15-.21.27-.02.11.04.25.12.32.1.1.24.17.38.19.14.02.3.01.42-.06.07-.05.15-.09.22-.14.1-.06.19-.15.21-.27.02-.11-.04-.25-.12-.32-.1-.1-.24-.17-.38-.19Z"/>
          <path class="st8" d="M1147.67,100.23c-.22-.18-.56-.21-.8-.06-.07.05-.15.09-.22.14-.1.06-.18.17-.19.29,0,.12.06.24.14.31.22.18.56.21.8.06.07-.05.15-.09.22-.14.1-.06.18-.17.19-.29,0-.12-.06-.24-.14-.31Z"/>
          <path class="st8" d="M1145.16,101.38c-.12-.03-.26-.02-.36.04-.07.05-.15.09-.22.14-.13.08-.24.17-.31.31-.06.11-.1.27-.06.39.03.11.1.22.22.25.12.03.26.02.36-.04.07-.05.15-.09.22-.14.13-.08.24-.17.31-.31.06-.11.1-.27.06-.39-.03-.11-.1-.22-.22-.25Z"/>
          <path class="st8" d="M1142.72,102.72c-.11-.05-.23-.04-.33.02-.07.05-.15.09-.22.14-.11.07-.19.2-.23.32-.04.13-.05.31,0,.44.04.11.11.24.23.29.11.05.23.04.33-.02.07-.05.15-.09.22-.14.11-.07.19-.2.23-.32.04-.13.05-.31,0-.44-.04-.11-.11-.24-.23-.29Z"/>
        </g>
        <g>
          <path class="st8" d="M1513.72,81.02c.82,2.96,3.45,5.04,6.5,5.04,1.08,0,2.11-.26,3.05-.75,1.51,2.01,3.86,3.22,6.37,3.22,4.26,0,7.76-3.43,8.04-7.74.1-.16.15-.35.15-.55,0-.59-.48-1.07-1.07-1.07h-.11c-.28-.01-.57.1-.78.3-.21.2-.32.48-.32.77,0,0,0,.02,0,.03-.01,3.38-2.66,6.13-5.9,6.13-2.1,0-4.05-1.18-5.11-3.07-.15-.27-.41-.47-.72-.53-.31-.06-.62,0-.87.2-.79.61-1.73.93-2.72.93-2.24,0-4.14-1.67-4.53-3.96-.08-.44-.42-.79-.86-.88-2.35-.44-4.05-2.56-4.05-5.05,0-.59-.48-1.07-1.07-1.07s-1.07.48-1.07,1.07c0,3.27,2.1,6.1,5.1,6.99Z"/>
          <path class="st8" d="M1518.56,76.78c.59,0,1.07-.48,1.07-1.07,0-3.6,2.93-6.52,6.52-6.52s6.52,2.93,6.52,6.53c0,.44.27.84.68,1,.41.16.88.05,1.18-.27,1.78-1.94,4.81-2.06,6.75-.28.93.86,1.48,2.03,1.54,3.3v8.6c0,.59.48,1.07,1.07,1.07s1.07-.48,1.07-1.07v-8.62s0-.03,0-.04c-.08-1.85-.87-3.56-2.23-4.81-2.28-2.1-5.61-2.38-8.16-.9-.91-3.81-4.35-6.65-8.43-6.65-4.78,0-8.67,3.89-8.67,8.67,0,.59.48,1.07,1.07,1.07Z"/>
          <rect class="st8" x="1534.5" y="91.78" width="18.4" height="7.8"/>
          <path class="st8" d="M1558.58,133.98h-7.86v-32.31h-14.03v32.31h-2.19v-20.43l-19.53-18.6v20.01l-21.67-20.01v39.04h-7.57c-.59,0-1.07.48-1.07,1.07s.48,1.07,1.07,1.07h72.85c.59,0,1.07-.48,1.07-1.07s-.48-1.07-1.07-1.07ZM1519.04,110.26c0-.59.48-1.07,1.07-1.07s1.07.48,1.07,1.07v23.72h-2.15v-23.72ZM1497.41,110.26c0-.59.48-1.07,1.07-1.07s1.07.48,1.07,1.07v23.72h-2.15v-23.72Z"/>
        </g>
        <rect class="st1" x="221.89" y="151.87" width="325" height="55"/>
        <rect class="st1" x="601.14" y="151.87" width="325" height="55"/>
        <rect class="st1" x="980.4" y="151.87" width="325" height="55"/>
        <rect class="st1" x="1359.65" y="151.87" width="325" height="55"/>
        <text class="st3" transform="translate(709.62 176.28)"><tspan x="0" y="0">HỒ T’NƯNG</tspan><tspan x="6.67" y="21.6">(BIỂN HỒ)</tspan></text>
        <text class="st3" transform="translate(252.16 176.28)"><tspan x="0" y="0">ĐỒI THÔNG, KHU SINH THÁI</tspan><tspan x="91.66" y="21.6">BIỂN HỒ</tspan></text>
        <text class="st3" transform="translate(1100.45 173.43)"><tspan x="0" y="0">SÂN BAY</tspan><tspan x="7.55" y="21.6">PLEIKU</tspan></text>
        <text class="st3" transform="translate(1430.65 173.43)"><tspan x="0" y="0">KHU CÔNG NGHIỆP</tspan><tspan x="44.31" y="21.6">DIÊN PHÚ</tspan></text>
      </g>
      <text class="st2" transform="translate(925.69 519.25)"><tspan x="0" y="0">3 PHÚT</tspan></text>
      <text class="st2" transform="translate(462.38 519.25)"><tspan x="0" y="0">2 PHÚT</tspan></text>
      <text class="st2" transform="translate(230.14 519.25)"><tspan x="0" y="0">3 PHÚT</tspan></text>
      <text class="st2" transform="translate(694.24 519.25)"><tspan x="0" y="0">2 PHÚT</tspan></text>
      <text class="st2" transform="translate(1390.93 519.25)"><tspan x="0" y="0">1 PHÚT</tspan></text>
      <text class="st2" transform="translate(1157.55 519.25)"><tspan x="0" y="0">3 PHÚT</tspan></text>
      <g>
        <path class="st8" d="M930.93,362.58h-11.55c-1.13,0-2.05-.92-2.05-2.05v-3.01c0-1.13.92-2.05,2.05-2.05h11.55c1.13,0,2.05.92,2.05,2.05v3.01c0,1.13-.92,2.05-2.05,2.05ZM919.38,356.85c-.38,0-.68.31-.68.68v3.01c0,.38.31.68.68.68h11.55c.38,0,.68-.31.68-.68v-3.01c0-.38-.31-.68-.68-.68h-11.55Z"/>
        <path class="st8" d="M987.07,397.89h-48.19c-.34,0-.63-.25-.68-.59l-5.04-37.64h-.87c-.38,0-.68-.31-.68-.68s.31-.68.68-.68h1.46c.34,0,.63.25.68.59l5.04,37.64h47.59c.38,0,.68.31.68.68s-.31.68-.68.68Z"/>
        <path class="st8" d="M983.02,388.56h-44.98c-.38,0-.68-.31-.68-.68s.31-.68.68-.68h44.44l5.2-23.15h-53.24c-.38,0-.68-.31-.68-.68s.31-.68.68-.68h54.09c.21,0,.4.09.53.26.13.16.18.37.13.58l-5.51,24.52c-.07.31-.35.53-.67.53Z"/>
        <path class="st8" d="M947.45,382.49h-1.39c-2.07,0-3.75-1.68-3.75-3.75v-8.03c0-2.07,1.68-3.75,3.75-3.75h1.39c2.07,0,3.75,1.68,3.75,3.75v8.03c0,2.07-1.68,3.75-3.75,3.75ZM946.05,368.32c-1.32,0-2.39,1.07-2.39,2.39v8.03c0,1.32,1.07,2.39,2.39,2.39h1.39c1.32,0,2.39-1.07,2.39-2.39v-8.03c0-1.32-1.07-2.39-2.39-2.39h-1.39Z"/>
        <path class="st8" d="M962.29,382.49h-1.39c-2.07,0-3.75-1.68-3.75-3.75v-8.03c0-2.07,1.68-3.75,3.75-3.75h1.39c2.07,0,3.75,1.68,3.75,3.75v8.03c0,2.07-1.68,3.75-3.75,3.75ZM960.9,368.32c-1.32,0-2.39,1.07-2.39,2.39v8.03c0,1.32,1.07,2.39,2.39,2.39h1.39c1.32,0,2.39-1.07,2.39-2.39v-8.03c0-1.32-1.07-2.39-2.39-2.39h-1.39Z"/>
        <path class="st8" d="M977.13,382.49h-1.39c-2.07,0-3.75-1.68-3.75-3.75v-8.03c0-2.07,1.68-3.75,3.75-3.75h1.39c2.07,0,3.75,1.68,3.75,3.75v8.03c0,2.07-1.68,3.75-3.75,3.75ZM975.74,368.32c-1.32,0-2.39,1.07-2.39,2.39v8.03c0,1.32,1.07,2.39,2.39,2.39h1.39c1.32,0,2.39-1.07,2.39-2.39v-8.03c0-1.32-1.07-2.39-2.39-2.39h-1.39Z"/>
        <path class="st8" d="M950.74,410.04c-3.54,0-6.42-2.88-6.42-6.42s2.88-6.42,6.42-6.42,6.42,2.88,6.42,6.42-2.88,6.42-6.42,6.42ZM950.74,398.57c-2.79,0-5.05,2.27-5.05,5.05s2.27,5.05,5.05,5.05,5.05-2.27,5.05-5.05-2.27-5.05-5.05-5.05Z"/>
        <path class="st8" d="M972.33,410.04c-3.54,0-6.42-2.88-6.42-6.42s2.88-6.42,6.42-6.42,6.42,2.88,6.42,6.42-2.88,6.42-6.42,6.42ZM972.33,398.57c-2.79,0-5.05,2.27-5.05,5.05s2.27,5.05,5.05,5.05,5.05-2.27,5.05-5.05-2.27-5.05-5.05-5.05Z"/>
      </g>
      <g>
        <path class="st8" d="M272.18,404.44h4.37v-9.51h5.86v9.51h4.37v-22.46h-14.59v22.46ZM273.93,387.56h11.1v1.47h-11.1v-1.47ZM273.93,390.47h11.1v1.47h-11.1v-1.47Z"/>
        <path class="st8" d="M239.4,376.35l7.82-7.72h-14.42l-8.01,7.5h-1.04c-.57,0-1.04.83-1.04,1.86v1.86h16.67v-3.51Z"/>
        <path class="st8" d="M228.09,404.44h4.32v-9.51h5.86v9.51h4.41v-22.46h-14.6v22.46ZM229.84,387.56h11.1v1.47h-11.1v-1.47ZM229.84,390.47h11.1v1.47h-11.1v-1.47Z"/>
        <path class="st8" d="M273.76,379.85v-2.56l-16.18-16.18-16.18,16.18v2.57s3.52,0,3.52,0v24.58h25.33v-24.59h3.52ZM261.87,396.06h-8.57v-8.57h8.57v8.57Z"/>
        <path class="st8" d="M291.68,376.13h-1.04l-8.01-7.5h-14.42l7.76,7.66.07,3.58h16.68v-1.86c0-1.03-.47-1.86-1.04-1.86Z"/>
      </g>
      <text class="st2" transform="translate(1621.25 519.25)"><tspan x="0" y="0">3 PHÚT</tspan></text>
      <g>
        <path class="st8" d="M1663.29,404.44h4.37v-9.51h5.86v9.51h4.37v-22.46h-14.59v22.46ZM1665.04,387.56h11.1v1.47h-11.1v-1.47ZM1665.04,390.47h11.1v1.47h-11.1v-1.47Z"/>
        <path class="st8" d="M1630.51,376.35l7.82-7.72h-14.42l-8.01,7.5h-1.04c-.57,0-1.04.83-1.04,1.86v1.86h16.67v-3.51Z"/>
        <path class="st8" d="M1619.2,404.44h4.32v-9.51h5.86v9.51h4.41v-22.46h-14.6v22.46ZM1620.95,387.56h11.1v1.47h-11.1v-1.47ZM1620.95,390.47h11.1v1.47h-11.1v-1.47Z"/>
        <path class="st8" d="M1664.87,379.85v-2.56l-16.18-16.18-16.18,16.18v2.57s3.52,0,3.52,0v24.58h25.33v-24.59h3.52ZM1652.98,396.06h-8.57v-8.57h8.57v8.57Z"/>
        <path class="st8" d="M1682.78,376.13h-1.04l-8.01-7.5h-14.42l7.76,7.66.07,3.58h16.68v-1.86c0-1.03-.47-1.86-1.04-1.86Z"/>
      </g>
      <polygon class="st8" points="750.49 374.37 729.8 374.37 729.8 353.69 713.03 353.69 713.03 374.37 692.35 374.37 692.35 391.15 713.03 391.15 713.03 411.83 729.8 411.83 729.8 391.15 750.49 391.15 750.49 374.37"/>
      <g>
        <rect class="st8" x="1403.34" y="325.43" width="27.27" height="109.01" transform="translate(1796.91 -1037.03) rotate(90)"/>
        <line class="st5" x1="1471.48" y1="379.94" x2="1362.47" y2="379.94"/>
      </g>
      <path class="st8" d="M1219.99,369.93c-.06-.28-.29-.49-.57-.53-.28-.03-.56.11-.69.37-.19.39-.44.75-.74,1.05-.22.22-.55.24-1.07.25-.06,0-.12,0-.18,0-.14,0-2.85,0-7.63,0l1.13-4.18c.32-.07.65-.18,1.01-.36.2-.1.42-.21.63-.37.46-.35,1.48-1.41.99-3.74-.06-.28-.29-.49-.57-.53-.28-.04-.56.11-.69.37-.19.39-.44.75-.74,1.05-.22.22-.55.24-1.07.25-.06,0-.12,0-.18,0-.12,0-1.78,0-4.69,0l.76-3.91c.31-.07.63-.18.98-.35.2-.1.42-.21.63-.37.46-.35,1.48-1.41.99-3.74-.06-.28-.29-.49-.57-.53-.28-.03-.56.11-.69.37-.19.39-.44.75-.74,1.05-.22.22-.55.24-1.07.25-.06,0-.12,0-.18,0-.23,0-5.76,0-14.47.01-2.49-2.85-4.76-5.46-4.78-5.48-.13-.15-.31-.23-.51-.23h0c-.19,0-.38.08-.51.23-.02.02-2.29,2.63-4.78,5.48-8.57,0-14.24,0-14.47-.01-.06,0-.12,0-.18,0-.52,0-.85-.03-1.07-.25-.3-.31-.55-.66-.74-1.05-.13-.26-.4-.4-.69-.37-.28.04-.51.25-.57.53-.49,2.33.53,3.39.99,3.74.21.16.44.27.63.37.35.17.67.28.98.35l.76,3.91c-2.91,0-4.57,0-4.69,0-.06,0-.12,0-.18,0-.52,0-.85-.03-1.07-.25-.3-.31-.55-.66-.74-1.05-.13-.26-.4-.41-.69-.37-.28.04-.51.25-.57.53-.49,2.33.53,3.39.99,3.74.21.16.44.27.63.37.36.18.69.29,1.01.36l1.13,4.18c-5,0-7.83,0-7.98,0-.06,0-.12,0-.18,0-.52,0-.85-.03-1.07-.25-.3-.31-.55-.66-.74-1.05-.13-.26-.4-.4-.69-.37-.28.04-.51.25-.57.53-.49,2.33.53,3.39.99,3.74.21.16.44.27.63.37.36.18.69.29,1.01.36l2.35,8.68h-.51c-.37,0-.67.3-.67.67v1.76c0,.37.3.67.67.67h.71v20.31h-.71c-.37,0-.67.3-.67.67v1.76c0,.37.3.67.67.67h8.79v2.21c-.34.03-.61.32-.61.67v1.76c0,.37.3.67.67.67h15.6s.02,0,.04,0h5.91s9.26,0,9.26,0h12.58c.37,0,.67-.3.67-.67v-1.76c0-.35-.27-.64-.61-.67v-2.21h8.66c.37,0,.67-.3.67-.67v-1.76c0-.37-.3-.67-.67-.67h-.71v-20.31h.71c.37,0,.67-.3.67-.67v-1.76c0-.37-.3-.67-.67-.67h-.69l2.35-8.68c.32-.07.65-.18,1.01-.36.2-.1.42-.21.63-.37.46-.35,1.48-1.41.99-3.74ZM1211.46,374.52c-.1.54-.18.74-.51,1.05-.33.31-.79.54-1.37.68-.64.16-1.11.11-1.54-.16-.35-.22-.66-.54-.99-.88-.1-.1-.2-.21-.3-.3-.13-.13-.25-.25-.38-.38h5.09ZM1207.72,371.08c-1.36,0-2.86,0-4.5,0-.19-.22-.38-.43-.57-.65-1.01-1.15-1.99-2.3-2.93-3.41h8.9s.08,0,.11,0c.03,0,.06,0,.09,0l-1.1,4.07ZM1203.57,363.59c-1.87,0-4.13,0-6.73,0-.51-.61-1.04-1.23-1.56-1.83-.5-.57-1.08-1.24-1.7-1.95h10.47s.07,0,.11,0c.05,0,.1,0,.16,0l-.74,3.79ZM1185.3,352.35c1.11,1.27,3.85,4.42,6.28,7.2,0,0,0,0,0,.01.99,1.14,1.93,2.21,2.68,3.07.58.66,1.16,1.35,1.72,2.03.01.02.03.04.05.05.13.15.26.31.39.46.28.34.56.68.85,1.01,1.37,1.62,2.84,3.37,4.37,5.12,1.37,1.57,2.72,3.1,4.17,4.54.09.09.19.19.28.29.35.36.75.78,1.24,1.08.74.47,1.58.57,2.58.33.63-.16,1.18-.4,1.62-.72-.11.45-.25.89-.5,1.22-.43.58-1.23,1.15-2.13,1.54-.89.38-1.81.52-2.72.57l-20.37-23.36c-.13-.15-.31-.23-.51-.23s-.38.08-.51.23l-20.37,23.36c-.91-.05-1.84-.2-2.72-.57-.9-.38-1.69-.96-2.13-1.54-.25-.33-.39-.77-.5-1.22.45.33.99.57,1.62.72,1,.25,1.84.14,2.58-.33.49-.31.89-.72,1.24-1.08.09-.1.19-.19.28-.29,1.45-1.44,2.8-2.97,4.17-4.54,1.53-1.75,3.01-3.5,4.37-5.12.28-.34.57-.67.85-1.01.7-.84,1.43-1.71,2.16-2.54.72-.83,1.62-1.86,2.57-2.95.11-.07.19-.16.24-.28,2.4-2.75,5.07-5.81,6.16-7.06ZM1194.55,399.13c-4.28-1.08-8.63-8.52-8.67-8.59-.12-.21-.34-.33-.58-.33s-.46.13-.58.33c-.04.08-4.39,7.51-8.67,8.59-.3.08-.51.34-.51.65v13.77h-5.31v-1.09c0-.35-.27-.64-.61-.67v-28.51c.34-.03.61-.32.61-.67v-1.09h30.1v1.09c0,.35.27.64.61.67v28.51c-.34.03-.61.32-.61.67v1.09h-5.26v-13.77c0-.31-.21-.58-.51-.65ZM1201.61,380.19h-35.43l19.12-21.92,19.12,21.92h-2.81ZM1164.86,383.29h3.41v28.5h-3.41v-28.5ZM1202.28,411.79v-28.5h3.41v28.5h-3.41ZM1164.22,374.52c-.13.13-.25.26-.38.38-.1.1-.2.2-.3.3-.33.34-.64.66-.99.88-.42.27-.9.31-1.54.16-.57-.14-1.03-.37-1.37-.68-.33-.31-.42-.51-.51-1.05h5.09ZM1166.28,359.8c.05,0,.1,0,.16,0h10.58c-.62.71-1.2,1.38-1.7,1.95-.53.6-1.05,1.22-1.56,1.83-2.6,0-4.86,0-6.73,0l-.74-3.79ZM1161.77,367.02s.06,0,.09,0h9.01c-.94,1.11-1.92,2.26-2.93,3.41-.19.22-.38.44-.57.65-1.63,0-3.13,0-4.5,0l-1.1-4.07ZM1154.31,374.52s.06,0,.09,0h3.33c-.21.78-.22,1.46-.03,2.34.15.68.35,1.4.79,1.99.82,1.1,2.14,1.74,2.68,1.97.58.25,1.17.41,1.74.52v1.28c0,.18.07.34.18.46h-6.46l-2.32-8.56ZM1156.79,386.18h6.73v20.31h-6.73v-20.31ZM1192.06,413.55v-11.31c0-.3-.2-.56-.48-.64-2.31-.69-4.89-4.66-5.69-6.13-.12-.22-.34-.35-.59-.35h0c-.25,0-.47.13-.59.35-.8,1.47-3.38,5.44-5.69,6.13-.28.09-.48.35-.48.64v11.31s-1.66,0-1.66,0v-13.27c3.69-1.27,7.09-6.07,8.42-8.13,1.33,2.06,4.73,6.85,8.42,8.13v13.27h-1.66ZM1213.63,406.48h-6.6v-20.31h6.6v20.31ZM1213.61,383.08h-6.15c.11-.12.18-.28.18-.46v-1.27c.59-.11,1.19-.27,1.79-.52.53-.23,1.85-.87,2.68-1.97.45-.6.64-1.31.79-1.99.19-.89.19-1.57-.03-2.34h2.87s.08,0,.11,0c.03,0,.06,0,.09,0l-2.32,8.56Z"/>
      <rect class="st1" x="384.57" y="436.81" width="210" height="55"/>
      <rect class="st1" x="616.42" y="436.81" width="210" height="55"/>
      <rect class="st1" x="848.27" y="436.81" width="210" height="55"/>
      <rect class="st1" x="1080.12" y="436.81" width="210" height="55"/>
      <rect class="st1" x="152.72" y="436.81" width="210" height="55"/>
      <rect class="st1" x="1311.97" y="436.81" width="210" height="55"/>
      <rect class="st1" x="1543.82" y="436.81" width="210" height="55"/>
      <text class="st3" transform="translate(863.19 461.54)"><tspan x="0" y="0">CHUỖI WINMART+,</tspan><tspan x=".72" y="21.6">BÁCH HÓA XANH...</tspan></text>
      <text class="st3" transform="translate(424.72 459.29)"><tspan x="0" y="0">UK ACADEMY</tspan><tspan x="15.01" y="21.6">(QUỐC TẾ)</tspan></text>
      <text class="st3" transform="translate(162.85 462.17)"><tspan x="0" y="0">TRƯỜNG MẦM NON,</tspan><tspan x="14.09" y="21.6">TH, THCS TRÀ BÁ</tspan></text>
      <text class="st3" transform="translate(653.7 459.29)"><tspan x="0" y="0">PHÒNG KHÁM</tspan><tspan x="-22.72" y="21.6">NHA KHOA TRÀ BÁ</tspan></text>
      <text class="st3" transform="translate(1372.59 462.17)"><tspan x="0" y="0">QUỐC LỘ</tspan><tspan x="13.74" y="21.6">14 &amp; 19</tspan></text>
      <text class="st3" transform="translate(1146.2 459.29)"><tspan x="0" y="0">TỊNH XÁ</tspan><tspan x="-25.43" y="21.6">NGỌC TRUNG</tspan></text>
      <text class="st3" transform="translate(1613.62 462.17)"><tspan x="0" y="0">BẾN XE</tspan><tspan x="-15.86" y="21.6">ĐỨC LONG</tspan></text>
    </g>
  </g>
</svg>