<?xml version="1.0" encoding="UTF-8"?>
<svg id="Layer_1" xmlns="http://www.w3.org/2000/svg" version="1.1" xmlns:xlink="http://www.w3.org/1999/xlink" viewBox="0 0 7532 3954">
  <!-- Generator: Adobe Illustrator 29.6.1, SVG Export Plug-In . SVG Version: 2.1.1 Build 9)  -->
  <defs>
    <style>
      .st0 {
        fill: #e0e0e0;
        fill-rule: evenodd;
      }

      .st1 {
        clip-rule: evenodd;
        fill: none;
      }

      .st2 {
        fill: url(#linear-gradient);
      }

      .st3 {
        clip-path: url(#clippath);
      }
    </style>
    <clipPath id="clippath">
      <path class="st1" d="M0,3954h7415.95c-275.22-499.96-858.04-1063.93-2060.55-816.73C1752.14,3877.97,1220.96,836.93,0,2373.74v1580.26Z"/>
    </clipPath>
    <linearGradient id="linear-gradient" x1="3735.77" y1="-224.3" x2="3687.59" y2="4317.08" gradientUnits="userSpaceOnUse">
      <stop offset="0" stop-color="#ebebeb"/>
      <stop offset="1" stop-color="#fcfcfc"/>
    </linearGradient>
  </defs>
  <g class="st3">
    <rect class="st2" y="836.93" width="7415.95" height="3117.07"/>
  </g>
  <path class="st0" d="M0,150.48C7.4,101.38,15.46,51.32,24.19.31h6.67C19.43,67.09,9.17,132.18,0,195.67v-45.19ZM441.29.31c-180.88,1118.04-32.19,1757.58,305.94,2099.68,289.13,292.53,717.07,367.78,1195.84,339.13,16.04-2.72,32.07-5.44,48.16-8.11,23.41-4.01,46.86-7.99,70.38-11.9,23.41-4.01,46.86-7.99,70.38-11.89,23.41-4.01,46.86-7.98,70.38-11.9,23.41-4.01,46.86-7.98,70.38-11.89,23.41-4.01,46.86-7.99,70.38-11.89,23.41-4.01,46.86-7.99,70.38-11.9,23.41-4.01,46.86-7.99,70.38-11.89,23.41-4.01,46.86-7.99,70.38-11.9,23.41-4.01,46.86-7.98,70.38-11.89,23.41-4.01,46.86-7.98,70.38-11.89,23.41-4.01,46.86-7.99,70.38-11.9,23.41-4.01,46.86-7.98,70.38-11.89,23.41-4.01,46.86-7.98,70.38-11.89,23.41-4.01,46.86-7.98,70.38-11.9,23.41-4.01,46.86-7.98,70.38-11.89,23.41-4.01,46.87-7.98,70.38-11.9,23.41-4.01,46.87-7.99,70.38-11.89,23.41-4.01,46.86-7.98,70.38-11.89,23.41-4.01,46.86-7.98,70.38-11.9,23.41-4.01,46.87-7.99,70.38-11.89,23.41-4.01,46.87-7.98,70.38-11.89,23.41-4.01,46.86-7.98,70.38-11.9,23.41-4.02,46.87-7.98,70.38-11.89,23.41-4.01,46.86-7.99,70.38-11.9,23.4-4.02,46.86-7.99,70.38-11.89,1423.32-243.88,3061.58-315.35,3618.35,1311.71,64.09,187.29,116.46,356.57,162.46,508.64h-6.89c-45.87-151.61-98.08-320.25-161.83-506.54-446.24-1304.08-1590.56-1513.65-2760.42-1419.22,1147.4-80.47,2257.59,146.97,2696.29,1429.01,62.42,182.42,113.74,347.77,158.87,496.75h-6.89c-45-148.52-96.14-313.22-158.22-494.65-446.25-1304.08-1590.56-1513.66-2760.42-1419.22,1147.4-80.48,2257.59,146.97,2696.29,1429.01,60.76,177.58,111,338.98,155.26,484.85h-6.89c-44.12-145.4-94.18-306.15-154.62-482.75-446.24-1304.08-1590.55-1513.66-2760.42-1419.22,1147.4-80.48,2257.59,146.96,2696.29,1429.01,59.12,172.77,108.28,330.21,151.65,472.96h-6.9c-43.23-142.27-92.22-299.06-151-470.86-446.25-1304.08-1590.56-1513.66-2760.42-1419.22,1147.4-80.48,2257.59,146.97,2696.29,1429.01,57.48,167.99,105.54,321.48,148.03,461.07h-6.89c-42.36-139.1-90.23-291.94-147.39-458.97-446.25-1304.07-1590.56-1513.66-2760.42-1419.22,1147.4-80.48,2257.59,146.97,2696.29,1429.01,55.85,163.23,102.81,312.78,144.41,449.17h-6.9c-41.46-135.9-88.23-284.79-143.76-447.07-446.25-1304.08-1590.55-1513.66-2760.42-1419.22,1147.4-80.48,2257.59,146.97,2696.29,1429.01,54.23,158.49,100.08,304.09,140.77,437.28h-6.9c-40.55-132.68-86.22-277.61-140.13-435.18-446.24-1304.08-1590.55-1513.66-2760.42-1419.22,1147.41-80.48,2257.59,146.96,2696.29,1429.01,52.62,153.79,97.36,295.44,137.14,425.38h-6.9c-39.64-129.43-84.18-270.42-136.49-423.28-446.25-1304.07-1590.55-1513.66-2760.42-1419.22,1147.41-80.47,2257.59,146.97,2696.29,1429.01,51.02,149.11,94.63,286.8,133.5,413.49h-6.91c-38.72-126.17-82.13-263.19-132.84-411.39-446.24-1304.08-1590.55-1513.67-2760.42-1419.22,1147.4-80.48,2257.59,146.97,2696.29,1429.01,49.43,144.45,91.89,278.2,129.84,401.59h-6.9c-37.8-122.88-80.07-255.95-129.19-399.49-446.25-1304.08-1590.55-1513.66-2760.42-1419.22,1147.4-80.49,2257.59,146.97,2696.29,1429.01,47.84,139.82,89.16,269.61,126.18,389.7h-6.9c-36.87-119.55-77.98-248.67-125.52-387.6-446.24-1304.07-1590.55-1513.66-2760.42-1419.22,1147.4-80.48,2257.58,146.96,2696.29,1429.01,46.27,135.22,86.44,261.05,122.51,377.8h-6.9c-35.92-116.21-75.89-241.37-121.85-375.7-446.25-1304.07-1590.54-1513.66-2760.42-1419.22,1147.4-80.48,2257.59,146.96,2696.29,1429.01,44.7,130.64,83.72,252.52,118.84,365.91h-6.92c-34.97-112.84-73.76-234.05-118.17-363.81-446.24-1304.07-1590.56-1513.66-2760.42-1419.22,1147.41-80.47,2257.59,146.97,2696.29,1429.01,43.14,126.09,80.99,244,115.14,354.01h-6.91c-34-109.46-71.64-226.7-114.48-351.91-446.25-1304.07-1590.57-1513.66-2760.42-1419.22,1147.39-80.48,2257.59,146.97,2696.29,1429.01,41.59,121.55,78.26,235.52,111.44,342.12h-6.91c-33.03-106.05-69.48-219.33-110.78-340.02-446.24-1304.08-1590.56-1513.66-2760.42-1419.22,1147.4-80.47,2257.58,146.97,2696.29,1429.01,40.05,117.04,75.53,227.06,107.74,330.23h-6.91c-32.04-102.61-67.32-211.94-107.08-328.12-446.24-1304.07-1590.56-1513.67-2760.42-1419.22,1147.39-80.47,2257.59,146.97,2696.29,1429.01,38.51,112.56,72.8,218.61,104.02,318.33h-6.91c-31.05-99.16-65.13-204.52-103.36-316.23-446.24-1304.07-1590.56-1513.66-2760.42-1419.22,1147.4-80.48,2257.58,146.96,2696.29,1429.01,36.99,108.09,70.08,210.19,100.29,306.44h-6.92c-30.04-95.68-62.92-197.08-99.62-304.34-446.24-1304.08-1590.56-1513.66-2760.42-1419.22,1147.4-80.48,2257.59,146.97,2696.29,1429.01,35.46,103.66,67.35,201.78,96.55,294.54h-6.91c-29.03-92.17-60.7-189.62-95.89-292.44-446.24-1304.08-1590.56-1513.67-2760.42-1419.22,1147.4-80.48,2257.59,146.97,2696.29,1429.01,33.95,99.23,64.62,193.41,92.8,282.65h-6.92c-28-88.65-58.46-182.14-92.13-280.55-446.24-1304.08-1590.56-1513.66-2760.42-1419.22,1147.4-80.47,2257.59,146.96,2696.29,1429.01,32.45,94.83,61.9,185.05,89.04,270.76h-6.92c-26.97-85.1-56.19-174.63-88.37-268.66-446.24-1304.08-1590.56-1513.66-2760.42-1419.22,1147.39-80.49,2257.58,146.96,2696.29,1429.01,30.95,90.45,59.17,176.71,85.26,258.86h-6.92c-25.92-81.55-53.92-167.11-84.59-256.76-446.24-1304.08-1590.56-1513.67-2760.42-1419.22,1147.4-80.49,2257.59,146.96,2696.29,1429.01,29.46,86.1,56.45,168.4,81.48,246.97h-6.92c-24.85-77.96-51.62-159.56-80.81-244.87-446.24-1304.07-1590.55-1513.65-2760.42-1419.22,1147.4-80.48,2257.59,146.96,2696.29,1429.01,27.98,81.77,53.73,160.1,77.69,235.07h-6.93c-23.78-74.36-49.3-151.99-77.01-232.97-446.24-1304.08-1590.56-1513.66-2760.42-1419.22,1147.4-80.48,2257.59,146.97,2696.29,1429.01,26.5,77.45,51,151.83,73.88,223.18h-6.92c-22.69-70.74-46.97-144.41-73.2-221.08-446.25-1304.08-1590.57-1513.66-2760.42-1419.22,1147.4-80.48,2257.59,146.96,2696.29,1429.01,25.03,73.16,48.28,143.57,70.06,211.28h-6.93c-21.59-67.09-44.61-136.81-69.38-209.18-446.24-1304.08-1590.56-1513.68-2760.42-1419.22,1147.39-80.48,2257.59,146.97,2696.29,1429.01,23.57,68.88,45.57,135.33,66.23,199.39h-6.93c-20.48-63.42-42.24-129.18-65.55-197.29-446.25-1304.08-1590.57-1513.67-2760.42-1419.22,1147.4-80.48,2257.59,146.97,2696.29,1429.01,22.11,64.63,42.84,127.12,62.39,187.49h-6.94c-19.35-59.74-39.85-121.53-61.7-185.39-446.24-1304.07-1590.55-1513.66-2760.42-1419.22,1147.4-80.49,2257.59,146.96,2696.29,1429.01,20.67,60.4,40.11,118.92,58.52,175.6h-6.93c-18.21-56.04-37.43-113.86-57.84-173.5-458.28-1339.25-1652.79-1524.11-2855.13-1410.86-34.6,6.08-68.64,11.91-102.13,17.43-23.72,4.1-47.19,8.07-70.38,11.9-23.72,4.1-47.19,8.07-70.38,11.89-23.73,4.1-47.19,8.07-70.38,11.9-23.73,4.1-47.19,8.07-70.38,11.89-23.72,4.1-47.19,8.07-70.38,11.89-23.72,4.1-47.19,8.07-70.38,11.9-23.72,4.09-47.19,8.07-70.38,11.89-23.72,4.1-47.19,8.07-70.38,11.89-23.72,4.1-47.19,8.07-70.38,11.9-23.72,4.1-47.19,8.07-70.38,11.89-23.73,4.1-47.19,8.07-70.38,11.9-23.72,4.1-47.19,8.07-70.38,11.89-23.73,4.1-47.19,8.07-70.38,11.89-23.72,4.1-47.19,8.07-70.38,11.9-23.73,4.1-47.19,8.07-70.38,11.89-23.72,4.1-47.19,8.07-70.38,11.89-23.73,4.1-47.19,8.07-70.38,11.9-23.72,4.1-47.19,8.07-70.38,11.89-23.73,4.1-47.19,8.07-70.38,11.9-23.72,4.1-47.19,8.07-70.38,11.89-23.72,4.1-47.19,8.07-70.38,11.89-23.72,4.1-47.19,8.07-70.38,11.9-23.72,4.1-47.19,8.07-70.38,11.89-23.72,4.1-47.19,8.07-70.38,11.89-23.72,4.1-47.19,8.07-70.38,11.9-23.72,4.1-47.19,8.07-70.38,11.89-23.72,4.1-47.19,8.07-70.38,11.9-75.02,12.96-147.42,24.62-216.84,34.55-107.62,15.4-213.84,27.17-317.78,34.21v-6.58c21.39-1.45,42.85-3.08,64.42-4.92-21.58,1.42-43.04,2.62-64.42,3.63v-6.55c44.5-2.09,89.44-5.1,134.8-8.97-45.4,3-90.35,5.07-134.8,6.15v-6.56c67.3-1.63,135.77-5.56,205.18-11.49-69.51,4.59-137.99,7.03-205.18,7v-6.56c89.75.04,181.8-4.33,275.56-12.34-93.95,6.2-186.02,8.48-275.56,6.02v-6.54c111.77,3.07,227.5-1.25,345.94-11.37-118.76,7.84-234.51,9.41-345.94,3.07v-6.54c133.3,7.61,272.83,3.85,416.32-8.42-143.98,9.5-283.53,9.82-416.32-2.06v-6.56c154.26,13.84,317.74,11.16,486.71-3.28-169.65,11.2-333.17,9.65-486.71-9.59v-6.6c174.58,21.96,362.17,20.95,557.09,4.29-195.85,12.92-383.51,8.86-557.09-19.8v-6.64c194.15,32.18,406.09,33.46,627.47,14.55-222.62,14.69-434.66,7.44-627.47-32.94v-6.7c212.86,44.8,449.41,48.98,697.85,27.75-250.05,16.5-486.76,5.32-697.85-49.42v-6.77c230.57,60.09,492.06,67.89,768.23,44.29-278.24,18.36-539.95,2.45-768.23-69.61v-6.87c247.13,78.45,533.94,90.63,838.61,64.59-307.29,20.28-594.43-1.23-838.61-94.03v-7.04c262.35,100.33,574.92,117.73,908.99,89.18-337.33,22.26-650.39-5.84-908.99-123.33v-7.23c276,126.28,614.89,149.81,979.37,118.66-368.56,24.32-708.14-11.46-979.37-158.29v-7.47c287.77,157,653.66,187.7,1049.76,153.87-401.18,26.47-768.03-18.28-1049.76-199.93v-7.82c297.3,193.41,690.98,232.53,1120.14,195.86-435.48,28.74-830.52-26.42-1120.14-249.53v-8.37c304.06,236.7,726.56,285.66,1190.52,246.01-471.88,31.14-896.29-36.25-1190.52-309.1v-8.97c306.56,287.78,757.59,348.67,1256.93,306.53l.69-.14c-487.75,31.73-924.55-42.14-1218.89-339.94-13.21-13.36-26.1-27.23-38.72-41.51v-9.96c14.11,16.19,28.56,31.85,43.41,46.88,303.59,307.15,760.22,374.76,1268.06,334.05l2.67-.52c-482.17,29.43-913.49-45.86-1205.04-340.84-38.94-39.4-75.38-82.72-109.1-130.23v-11.5c35.03,50.23,73.01,95.87,113.79,137.13,300.63,304.16,751.33,373.43,1253.22,335.23l5.1-.98c-477.16,27.39-903.58-49.11-1192.63-341.54-67.78-68.58-127.97-149.04-179.49-242.78v-13.83c52.48,97.77,114.26,181.29,184.17,252.02,298.01,301.5,743.48,372.19,1240.1,336.19l6.77-1.29c-472.53,25.51-894.44-52.1-1181.17-342.2-101.54-102.74-186.08-232.15-249.87-393v-18.1c64.13,167.27,150.33,301.05,254.56,406.5,295.58,299.05,736.24,371.05,1227.98,337.07l8.79-1.65c-468.43,23.87-886.39-54.69-1171.08-342.72C175.1,2029.11,64.7,1827.84,0,1558v-29c63.39,282.43,175.7,491.38,324.94,642.36,293.52,296.96,730.1,370.01,1217.7,337.74l10.29-1.9c-464.87,22.44-879.39-56.92-1162.3-343.14C45.24,1814.62-103.47,1156.97,92.57.31h6.67C-96.68,1155.24,51.24,1811.35,395.32,2159.47c291.73,295.15,724.79,369.11,1208.79,338.32l11.69-2.11c-461.82,21.22-873.4-58.82-1154.79-343.51C116.8,1803.91-32.06,1149.58,160.94.31h6.67C-25.27,1147.84,122.8,1800.65,465.7,2147.57c290.38,293.79,720.77,368.45,1202.06,338.77l12.65-2.28c-459.48,20.29-868.8-60.28-1149.02-343.79C188.37,1793.22,39.33,1142.23,229.32.31h6.67c-189.88,1140.16-41.62,1789.64,300.09,2135.36,289.5,292.9,718.16,367.99,1197.68,339.03l13.73-2.41c-458.14,19.76-866.18-61.1-1145.72-343.92C259.93,1782.53,110.7,1134.9,297.7.31h6.67c-186.88,1132.83-38.43,1778.94,302.1,2123.47,289.13,292.52,717.07,367.79,1195.85,339.13l14.52-2.47c-457.72,19.59-865.34-61.35-1144.68-343.96C331.53,1771.85,182.17,1127.49,366.17.31h6.66c-183.88,1125.42-35.31,1768.26,304.02,2111.57,289.13,292.53,717.07,367.78,1195.84,339.13l14.52-2.47c-457.72,19.59-865.35-61.36-1144.68-343.96C403.11,1761.18,253.65,1120.11,434.63.31h6.66Z"/>
</svg>