<?xml version="1.0" encoding="UTF-8"?>
<svg id="Layer_1" xmlns="http://www.w3.org/2000/svg" version="1.1" viewBox="0 0 3085 2294">
  <!-- Generator: Adobe Illustrator 29.6.1, SVG Export Plug-In . SVG Version: 2.1.1 Build 9)  -->
  <defs>
    <style>
      .st0 {
        fill: #e0e0e0;
      }
    </style>
  </defs>
  <path class="st0" d="M114.97,799.45c-41.37-38.38-52.77-67.96-40.07-90.71,43.1-77.18,368.97-71.34,739.75-64.68,374.67,6.71,795.37,14.26,1014.45-61.37,115.39-39.83,174.5-102.83,140.47-201.38-35.75-103.57-12.28-182.48,51.63-235.14,56.21-46.31,143.77-72.15,249.72-76.45,105.69-4.29,229.82,12.82,359.52,52.36,2.83.87,5.66,1.77,8.5,2.66-10.13-3.33-20.24-6.59-30.31-9.66-129.13-39.38-252.71-56.42-357.9-52.14-104.9,4.26-191.43,29.73-246.79,75.33-62.27,51.3-85.08,128.38-50.1,229.72,35.19,101.92-25.26,166.83-143.52,207.66-219.92,75.92-641.06,68.36-1016.13,61.64-369.22-6.62-693.71-12.44-735.36,62.16-13.27,23.77,2.79,56.19,56.14,100.02M135.36,811.16c-41.38-38.38-52.78-67.95-40.07-90.7,43.1-77.18,368.96-71.34,739.75-64.69,374.67,6.72,795.36,14.26,1014.45-61.37,115.39-39.83,174.5-102.83,140.47-201.38-35.76-103.57-12.28-182.48,51.63-235.13,56.21-46.32,143.76-72.16,249.72-76.46,105.68-4.29,229.82,12.83,359.52,52.37,2.83.87,5.66,1.77,8.49,2.67-10.13-3.34-20.24-6.6-30.31-9.66-129.14-39.38-252.71-56.42-357.9-52.15-104.9,4.26-191.43,29.73-246.8,75.33-62.27,51.3-85.08,128.38-50.09,229.72,35.18,101.92-25.26,166.83-143.52,207.65-219.92,75.92-641.07,68.36-1016.13,61.64-369.22-6.63-693.71-12.45-735.37,62.15-13.26,23.77,2.79,56.19,56.15,100.02ZM155.74,822.87c-41.37-38.38-52.76-67.96-40.07-90.7,43.09-77.18,368.96-71.34,739.75-64.69,374.68,6.72,795.37,14.26,1014.44-61.37,115.4-39.83,174.5-102.84,140.48-201.39-35.76-103.57-12.28-182.48,51.62-235.13,56.21-46.31,143.77-72.16,249.73-76.46,105.68-4.3,229.82,12.82,359.51,52.36,2.83.86,5.67,1.78,8.5,2.66-10.13-3.35-20.24-6.6-30.31-9.66-129.14-39.38-252.72-56.42-357.9-52.15-104.91,4.26-191.44,29.73-246.79,75.33-62.27,51.3-85.08,128.38-50.09,229.72,35.19,101.92-25.26,166.83-143.52,207.65-219.92,75.92-641.07,68.37-1016.14,61.64-369.21-6.62-693.71-12.45-735.36,62.15-13.27,23.77,2.79,56.19,56.15,100.02ZM176.12,834.58c-41.37-38.38-52.77-67.96-40.07-90.71,43.1-77.18,368.96-71.34,739.75-64.69,374.67,6.71,795.37,14.26,1014.45-61.37,115.39-39.83,174.5-102.83,140.47-201.39-35.76-103.57-12.28-182.47,51.63-235.13,56.21-46.31,143.77-72.15,249.72-76.46,105.69-4.3,229.82,12.82,359.52,52.37,2.83.86,5.66,1.77,8.5,2.66-10.13-3.35-20.24-6.59-30.31-9.66-129.13-39.38-252.71-56.42-357.9-52.15-104.9,4.27-191.43,29.73-246.79,75.33-62.27,51.3-85.08,128.37-50.1,229.72,35.19,101.91-25.26,166.83-143.52,207.65-219.92,75.92-641.06,68.37-1016.13,61.64-369.22-6.62-693.71-12.44-735.37,62.16-13.26,23.77,2.79,56.19,56.15,100.02ZM196.5,846.29c-41.37-38.37-52.77-67.96-40.07-90.71,43.09-77.18,368.96-71.34,739.75-64.68,374.67,6.71,795.36,14.26,1014.45-61.37,115.39-39.83,174.49-102.83,140.47-201.38-35.76-103.57-12.28-182.48,51.63-235.14,56.21-46.31,143.76-72.15,249.72-76.46,105.69-4.3,229.82,12.82,359.51,52.36,2.83.87,5.67,1.77,8.5,2.66-10.13-3.34-20.24-6.59-30.31-9.66-129.14-39.38-252.71-56.41-357.9-52.14-104.9,4.26-191.43,29.73-246.8,75.33-62.27,51.3-85.08,128.38-50.09,229.72,35.19,101.92-25.26,166.83-143.52,207.66-219.92,75.92-641.07,68.36-1016.13,61.64-369.22-6.62-693.71-12.44-735.37,62.16-13.27,23.77,2.79,56.19,56.14,100.01ZM216.89,858c-41.37-38.38-52.77-67.95-40.08-90.7,43.1-77.18,368.97-71.34,739.75-64.69,374.68,6.72,795.37,14.26,1014.44-61.38,115.39-39.83,174.5-102.83,140.47-201.38-35.75-103.57-12.28-182.48,51.63-235.13,56.21-46.32,143.77-72.16,249.72-76.46,105.69-4.3,229.82,12.83,359.52,52.36,2.83.87,5.66,1.77,8.5,2.67-10.14-3.35-20.24-6.6-30.32-9.66-129.13-39.38-252.71-56.42-357.89-52.15-104.91,4.26-191.44,29.73-246.79,75.33-62.27,51.3-85.08,128.38-50.1,229.72,35.19,101.92-25.26,166.83-143.52,207.65-219.91,75.92-641.06,68.36-1016.13,61.64-369.21-6.63-693.71-12.45-735.36,62.15-13.28,23.77,2.79,56.19,56.15,100.02ZM237.27,869.71c-41.38-38.38-52.78-67.96-40.07-90.7,43.1-77.18,368.96-71.34,739.75-64.69,374.67,6.72,795.37,14.26,1014.45-61.37,115.39-39.83,174.5-102.84,140.47-201.39-35.76-103.57-12.28-182.48,51.63-235.13,56.21-46.31,143.76-72.16,249.72-76.46,105.68-4.3,229.82,12.82,359.52,52.37,2.83.86,5.66,1.77,8.5,2.66-10.13-3.35-20.24-6.6-30.31-9.66-129.14-39.38-252.71-56.42-357.9-52.15-104.9,4.26-191.43,29.73-246.79,75.33-62.27,51.3-85.09,128.38-50.1,229.72,35.19,101.92-25.26,166.83-143.52,207.65-219.92,75.92-641.06,68.37-1016.13,61.64-369.22-6.62-693.71-12.45-735.37,62.15-13.27,23.78,2.8,56.19,56.15,100.02ZM257.65,881.42c-41.37-38.38-52.77-67.96-40.07-90.71,43.09-77.18,368.96-71.34,739.75-64.69,374.67,6.71,795.36,14.26,1014.44-61.37,115.4-39.83,174.5-102.83,140.47-201.39-35.76-103.57-12.28-182.47,51.63-235.13,56.21-46.31,143.77-72.15,249.72-76.46,105.69-4.3,229.82,12.82,359.51,52.36,2.83.87,5.67,1.77,8.5,2.66-10.12-3.35-20.24-6.59-30.31-9.66-129.14-39.38-252.72-56.42-357.9-52.15-104.9,4.27-191.43,29.73-246.8,75.33-62.27,51.3-85.08,128.37-50.09,229.72,35.19,101.91-25.26,166.83-143.52,207.65-219.92,75.92-641.07,68.37-1016.14,61.64-369.21-6.62-693.7-12.44-735.36,62.16-13.27,23.77,2.79,56.19,56.14,100.02ZM278.04,893.13c-41.37-38.38-52.78-67.95-40.08-90.71,43.1-77.18,368.96-71.34,739.75-64.68,374.67,6.71,795.37,14.26,1014.44-61.37,115.39-39.83,174.5-102.83,140.47-201.38-35.76-103.57-12.28-182.48,51.63-235.14,56.21-46.31,143.77-72.15,249.72-76.46,105.69-4.29,229.83,12.82,359.52,52.37,2.83.87,5.66,1.77,8.49,2.66-10.12-3.34-20.24-6.59-30.31-9.66-129.13-39.38-252.71-56.41-357.9-52.14-104.9,4.26-191.43,29.73-246.79,75.33-62.27,51.3-85.08,128.38-50.1,229.72,35.19,101.92-25.26,166.83-143.52,207.66-219.91,75.92-641.06,68.36-1016.13,61.64-369.22-6.62-693.71-12.44-735.36,62.16-13.28,23.77,2.79,56.19,56.15,100.02ZM298.42,904.84c-41.37-38.38-52.78-67.96-40.07-90.7,43.09-77.18,368.96-71.34,739.75-64.69,374.67,6.72,795.36,14.26,1014.45-61.37,115.39-39.83,174.5-102.83,140.47-201.38-35.76-103.57-12.28-182.48,51.63-235.13,56.21-46.32,143.76-72.16,249.72-76.46,105.68-4.3,229.82,12.83,359.52,52.37,2.83.87,5.66,1.77,8.5,2.67-10.13-3.34-20.24-6.6-30.31-9.66-129.14-39.38-252.71-56.42-357.9-52.15-104.9,4.26-191.43,29.73-246.79,75.33-62.27,51.3-85.08,128.38-50.09,229.72,35.19,101.92-25.26,166.83-143.52,207.65-219.92,75.92-641.07,68.36-1016.13,61.64-369.22-6.63-693.71-12.45-735.37,62.15-13.27,23.77,2.8,56.19,56.15,100.02ZM318.8,916.55c-41.37-38.38-52.77-67.96-40.07-90.7,43.09-77.18,368.96-71.34,739.74-64.69,374.68,6.72,795.37,14.26,1014.45-61.37,115.39-39.83,174.5-102.84,140.48-201.39-35.76-103.57-12.28-182.48,51.62-235.13,56.21-46.31,143.77-72.16,249.73-76.46,105.69-4.3,229.82,12.82,359.51,52.37,2.83.86,5.67,1.77,8.5,2.66-10.13-3.34-20.24-6.6-30.31-9.66-129.14-39.38-252.72-56.42-357.9-52.15-104.91,4.26-191.44,29.73-246.8,75.33-62.27,51.3-85.08,128.38-50.09,229.72,35.19,101.91-25.26,166.83-143.53,207.65-219.91,75.92-641.06,68.37-1016.13,61.64-369.21-6.62-693.71-12.44-735.36,62.15-13.28,23.78,2.79,56.19,56.14,100.02ZM339.19,928.26c-41.38-38.39-52.78-67.96-40.07-90.71,43.1-77.18,368.96-71.34,739.75-64.69,374.67,6.71,795.37,14.26,1014.44-61.37,115.39-39.83,174.5-102.83,140.47-201.39-35.76-103.57-12.28-182.47,51.63-235.13,56.21-46.31,143.77-72.15,249.72-76.45,105.69-4.3,229.83,12.82,359.52,52.36,2.83.87,5.66,1.77,8.49,2.66-10.12-3.35-20.24-6.59-30.31-9.66-129.13-39.38-252.71-56.42-357.9-52.15-104.9,4.27-191.43,29.73-246.79,75.34-62.27,51.3-85.08,128.37-50.1,229.72,35.19,101.91-25.26,166.83-143.52,207.65-219.91,75.92-641.06,68.37-1016.13,61.64-369.22-6.62-693.71-12.44-735.37,62.16-13.27,23.77,2.8,56.19,56.15,100.02ZM359.57,939.97c-41.37-38.38-52.77-67.95-40.07-90.71,43.09-77.18,368.96-71.34,739.75-64.68,374.67,6.71,795.36,14.26,1014.44-61.37,115.4-39.83,174.5-102.83,140.48-201.38-35.76-103.57-12.28-182.48,51.63-235.14,56.21-46.31,143.76-72.15,249.72-76.46,105.68-4.3,229.82,12.82,359.51,52.37,2.83.87,5.67,1.77,8.5,2.66-10.13-3.34-20.24-6.59-30.31-9.66-129.14-39.38-252.72-56.41-357.9-52.14-104.9,4.26-191.43,29.73-246.79,75.33-62.27,51.3-85.08,128.38-50.09,229.72,35.19,101.92-25.26,166.83-143.52,207.66-219.92,75.92-641.07,68.36-1016.13,61.64-369.22-6.62-693.71-12.44-735.37,62.16-13.27,23.77,2.79,56.19,56.15,100.02ZM379.95,951.68c-41.37-38.38-52.78-67.96-40.07-90.7,43.1-77.18,368.97-71.34,739.75-64.69,374.68,6.72,795.37,14.26,1014.45-61.38,115.39-39.83,174.5-102.83,140.47-201.38-35.75-103.57-12.28-182.48,51.63-235.13,56.21-46.32,143.77-72.16,249.72-76.46,105.69-4.29,229.82,12.83,359.52,52.37,2.83.87,5.66,1.77,8.5,2.67-10.13-3.35-20.24-6.6-30.31-9.66-129.14-39.38-252.71-56.42-357.89-52.15-104.9,4.26-191.44,29.73-246.8,75.33-62.27,51.3-85.08,128.38-50.1,229.72,35.19,101.92-25.25,166.83-143.52,207.65-219.92,75.92-641.06,68.36-1016.13,61.64-369.21-6.63-693.71-12.45-735.36,62.15-13.28,23.77,2.79,56.19,56.14,100.02ZM400.34,963.39c-41.38-38.38-52.78-67.96-40.07-90.7,43.1-77.18,368.96-71.34,739.75-64.69,374.67,6.71,795.37,14.26,1014.44-61.37,115.39-39.83,174.5-102.84,140.47-201.39-35.76-103.57-12.28-182.48,51.63-235.13,56.21-46.31,143.77-72.16,249.72-76.46,105.68-4.29,229.83,12.82,359.52,52.37,2.83.86,5.66,1.77,8.49,2.66-10.12-3.34-20.24-6.6-30.31-9.66-129.14-39.38-252.71-56.42-357.9-52.15-104.9,4.26-191.43,29.73-246.79,75.33-62.27,51.3-85.09,128.37-50.1,229.72,35.19,101.91-25.26,166.83-143.52,207.65-219.91,75.92-641.06,68.37-1016.13,61.64-369.22-6.62-693.71-12.44-735.37,62.15-13.27,23.77,2.8,56.19,56.15,100.02ZM420.72,975.1c-41.37-38.38-52.77-67.95-40.07-90.71,43.09-77.18,368.96-71.34,739.75-64.69,374.67,6.72,795.36,14.27,1014.44-61.37,115.4-39.83,174.5-102.83,140.48-201.39-35.76-103.57-12.28-182.47,51.62-235.13,56.21-46.31,143.77-72.15,249.73-76.46,105.68-4.3,229.82,12.82,359.51,52.36,2.83.87,5.67,1.77,8.5,2.66-10.13-3.34-20.24-6.59-30.31-9.66-129.14-39.38-252.72-56.42-357.9-52.15-104.9,4.27-191.43,29.73-246.79,75.34-62.27,51.3-85.08,128.37-50.09,229.72,35.18,101.91-25.26,166.83-143.52,207.65-219.92,75.92-641.07,68.37-1016.14,61.64-369.21-6.62-693.7-12.45-735.36,62.16-13.28,23.77,2.79,56.19,56.15,100.01ZM441.11,986.81c-41.37-38.38-52.78-67.95-40.07-90.71,43.1-77.18,368.96-71.34,739.75-64.68,374.67,6.71,795.37,14.26,1014.45-61.38,115.39-39.83,174.5-102.83,140.47-201.38-35.76-103.57-12.28-182.48,51.63-235.14,56.21-46.31,143.77-72.15,249.72-76.46,105.69-4.3,229.82,12.82,359.52,52.37,2.83.87,5.66,1.78,8.5,2.66-10.13-3.34-20.24-6.59-30.31-9.66-129.13-39.38-252.71-56.42-357.9-52.14-104.9,4.26-191.43,29.73-246.79,75.33-62.27,51.3-85.08,128.38-50.1,229.72,35.19,101.92-25.26,166.84-143.52,207.66-219.92,75.92-641.06,68.36-1016.13,61.64-369.22-6.62-693.71-12.44-735.36,62.16-13.28,23.77,2.79,56.19,56.14,100.02ZM461.48,998.52c-41.37-38.38-52.77-67.96-40.07-90.7,43.09-77.18,368.96-71.34,739.75-64.69,374.67,6.72,795.36,14.26,1014.44-61.38,115.39-39.83,174.5-102.83,140.47-201.38-35.76-103.57-12.28-182.48,51.63-235.13,56.21-46.32,143.77-72.16,249.72-76.46,105.69-4.29,229.82,12.83,359.52,52.37,2.83.87,5.66,1.77,8.49,2.67-10.12-3.35-20.24-6.6-30.31-9.66-129.14-39.38-252.71-56.42-357.9-52.15-104.9,4.26-191.43,29.73-246.8,75.33-62.27,51.3-85.08,128.38-50.09,229.72,35.19,101.92-25.26,166.83-143.52,207.65-219.92,75.92-641.07,68.36-1016.13,61.64-369.22-6.63-693.71-12.45-735.37,62.15-13.27,23.77,2.8,56.19,56.14,100.02ZM481.87,1010.23c-41.37-38.38-52.77-67.96-40.07-90.7,43.09-77.18,368.96-71.34,739.74-64.69,374.68,6.71,795.37,14.26,1014.44-61.37,115.39-39.83,174.5-102.84,140.47-201.39-35.75-103.57-12.28-182.48,51.63-235.13,56.21-46.31,143.77-72.16,249.73-76.46,105.68-4.3,229.82,12.82,359.51,52.36,2.83.86,5.67,1.77,8.5,2.66-10.14-3.34-20.24-6.6-30.31-9.66-129.14-39.38-252.72-56.42-357.9-52.15-104.9,4.26-191.44,29.73-246.79,75.33-62.27,51.3-85.08,128.37-50.09,229.72,35.18,101.91-25.26,166.83-143.53,207.65-219.91,75.92-641.06,68.37-1016.13,61.64-369.21-6.62-693.71-12.44-735.36,62.15-13.28,23.77,2.79,56.19,56.15,100.02ZM502.26,1021.94c-41.37-38.38-52.78-67.95-40.07-90.71,43.1-77.18,368.96-71.34,739.75-64.69,374.67,6.72,795.37,14.27,1014.45-61.37,115.39-39.83,174.5-102.83,140.47-201.39-35.76-103.57-12.28-182.47,51.63-235.13,56.21-46.31,143.76-72.15,249.72-76.46,105.69-4.3,229.82,12.82,359.52,52.37,2.83.87,5.66,1.78,8.5,2.66-10.13-3.35-20.24-6.59-30.31-9.66-129.13-39.38-252.71-56.42-357.9-52.15-104.9,4.27-191.43,29.73-246.79,75.34-62.27,51.3-85.08,128.37-50.1,229.72,35.19,101.91-25.26,166.83-143.52,207.65-219.92,75.92-641.06,68.37-1016.13,61.64-369.22-6.62-693.71-12.45-735.37,62.16-13.27,23.77,2.8,56.19,56.15,100.02ZM522.64,1033.65c-41.37-38.38-52.77-67.96-40.07-90.71,43.09-77.18,368.96-71.34,739.75-64.68,374.67,6.71,795.36,14.26,1014.44-61.38,115.4-39.83,174.5-102.83,140.47-201.38-35.76-103.57-12.28-182.48,51.63-235.14,56.21-46.31,143.76-72.15,249.72-76.46,105.69-4.29,229.82,12.82,359.51,52.37,2.83.87,5.67,1.77,8.5,2.66-10.13-3.33-20.24-6.59-30.31-9.66-129.14-39.38-252.72-56.42-357.9-52.14-104.9,4.26-191.43,29.73-246.8,75.33-62.27,51.3-85.08,128.38-50.09,229.72,35.18,101.92-25.26,166.84-143.52,207.66-219.92,75.92-641.07,68.36-1016.13,61.64-369.22-6.62-693.71-12.44-735.37,62.16-13.27,23.77,2.79,56.19,56.14,100.02ZM543.02,1045.36c-41.37-38.38-52.78-67.96-40.08-90.7,43.1-77.18,368.97-71.34,739.75-64.69,374.67,6.72,795.37,14.26,1014.44-61.38,115.39-39.83,174.5-102.83,140.47-201.38-35.75-103.57-12.28-182.48,51.63-235.13,56.21-46.32,143.77-72.16,249.72-76.46,105.69-4.3,229.82,12.82,359.52,52.37,2.83.87,5.66,1.78,8.5,2.67-10.14-3.35-20.24-6.59-30.32-9.66-129.13-39.38-252.71-56.42-357.89-52.15-104.91,4.26-191.44,29.73-246.79,75.33-62.28,51.3-85.08,128.38-50.1,229.72,35.19,101.91-25.26,166.83-143.52,207.65-219.92,75.92-641.06,68.36-1016.13,61.64-369.21-6.63-693.71-12.44-735.36,62.15-13.28,23.77,2.79,56.19,56.15,100.02ZM38.44,687.73c-13.27,23.77,2.79,56.19,56.15,100.02-41.37-38.38-52.77-67.96-40.07-90.71,43.09-77.18,368.96-71.34,739.75-64.69,374.67,6.72,795.36,14.26,1014.44-61.37,115.4-39.83,174.5-102.83,140.48-201.39-35.76-103.57-12.28-182.47,51.63-235.13,56.21-46.31,143.76-72.15,249.72-76.46,105.68-4.3,229.82,12.82,359.51,52.37,2.83.86,5.67,1.77,8.5,2.66-10.13-3.34-20.24-6.59-30.31-9.66-129.14-39.38-252.72-56.42-357.9-52.14-104.9,4.26-191.43,29.72-246.79,75.33-62.28,51.3-85.08,128.38-50.09,229.72,35.19,101.91-25.26,166.83-143.52,207.65-219.92,75.92-641.07,68.37-1016.14,61.64-369.21-6.62-693.7-12.44-735.36,62.16ZM1094.95,2294c-11.33-380.27-142.13-980.14-784.75-1364.25l-1.33-.77c-6.97-3.96-13.78-7.86-20.39-11.71-6.97-3.95-13.77-7.86-20.38-11.71-6.98-3.96-13.78-7.87-20.39-11.71-178.23-101.11-237.06-166.48-213.58-208.52,43.1-77.18,368.96-71.34,739.75-64.69,374.67,6.72,795.37,14.26,1014.44-61.37,115.39-39.83,174.5-102.84,140.47-201.39-35.76-103.57-12.28-182.48,51.63-235.13,56.21-46.31,143.76-72.16,249.72-76.46,105.69-4.29,229.83,12.82,359.52,52.37,104.07,31.74,211.73,77.92,316.33,139.12,6.81,3.83,13.61,7.73,20.38,11.71,6.81,3.84,13.6,7.75,20.39,11.71,6.8,3.84,13.6,7.74,20.38,11.71,6.8,3.84,13.61,7.75,20.38,11.72,6.8,3.83,13.6,7.74,20.39,11.71,6.8,3.84,13.6,7.74,20.38,11.71,6.8,3.84,13.6,7.75,20.38,11.71,6.8,3.84,13.6,7.75,20.38,11.72,5.32,2.99,10.62,6.03,15.94,9.11v41c-9.34-3.08-18.65-6.05-27.94-8.87-129.14-39.38-252.71-56.42-357.9-52.15-104.9,4.26-191.43,29.73-246.79,75.34-62.27,51.3-85.09,128.37-50.1,229.72,35.18,101.91-25.26,166.83-143.52,207.65-219.92,75.92-641.07,68.37-1016.13,61.64-369.22-6.62-693.71-12.45-735.37,62.15-13.27,23.78,2.8,56.19,56.15,100.02-41.37-38.38-52.78-67.96-40.07-90.7,43.1-77.18,368.96-71.34,739.75-64.69,374.67,6.71,795.37,14.26,1014.45-61.37,115.39-39.83,174.5-102.84,140.47-201.39-35.76-103.57-12.28-182.48,51.63-235.13,56.21-46.31,143.76-72.16,249.72-76.46,105.68-4.29,229.82,12.82,359.52,52.36l6.13,1.92v5.12l-7.56-2.33c-129.14-39.38-252.72-56.42-357.9-52.15-104.91,4.27-191.44,29.73-246.8,75.33-62.27,51.3-85.08,128.38-50.09,229.72,35.18,101.91-25.26,166.83-143.52,207.65-219.92,75.92-641.07,68.37-1016.14,61.64-369.21-6.62-693.7-12.45-735.36,62.16-13.28,23.77,2.79,56.19,56.15,100.02-41.37-38.38-52.77-67.95-40.07-90.71,43.09-77.18,368.96-71.34,739.75-64.69,374.67,6.72,795.36,14.27,1014.44-61.37,115.4-39.83,174.5-102.83,140.47-201.39-35.76-103.57-12.28-182.47,51.62-235.13,56.21-46.31,143.77-72.15,249.73-76.46,101.8-4.14,220.74,11.6,345.26,48.11v5.13c-124.49-36.65-243.38-52.44-345.07-48.31-104.9,4.26-191.43,29.73-246.79,75.33-62.27,51.3-85.08,128.38-50.1,229.72,35.19,101.92-25.26,166.84-143.52,207.66-219.91,75.92-641.06,68.36-1016.13,61.64-369.22-6.62-693.71-12.44-735.37,62.16-13.27,23.77,2.8,56.19,56.15,100.02-41.38-38.38-52.78-67.96-40.08-90.71,43.1-77.18,368.96-71.34,739.75-64.68,374.67,6.71,795.37,14.26,1014.44-61.38,115.39-39.83,174.5-102.83,140.47-201.38-35.76-103.57-12.28-182.48,51.63-235.14,56.21-46.31,143.77-72.15,249.72-76.46,96.24-3.91,207.78,9.94,324.88,42.31v5.09c-117.07-32.48-228.56-46.37-324.69-42.47-104.9,4.26-191.43,29.73-246.79,75.33-62.27,51.3-85.08,128.37-50.09,229.72,35.19,101.91-25.26,166.83-143.52,207.65-219.92,75.92-641.07,68.36-1016.13,61.64-369.22-6.63-693.71-12.44-735.37,62.15-13.27,23.77,2.79,56.19,56.15,100.02-41.37-38.38-52.77-67.96-40.07-90.7,43.09-77.18,368.96-71.34,739.75-64.69,374.67,6.71,795.36,14.26,1014.45-61.38,115.39-39.83,174.5-102.83,140.47-201.38-35.76-103.57-12.28-182.48,51.63-235.13,56.21-46.32,143.76-72.16,249.72-76.46,90.64-3.68,194.85,8.39,304.5,36.83v5.09c-109.61-28.56-213.78-40.67-304.3-36.99-104.91,4.26-191.44,29.73-246.8,75.34-62.27,51.3-85.08,128.37-50.09,229.72,35.19,101.91-25.26,166.83-143.53,207.65-219.91,75.92-641.06,68.37-1016.13,61.64-369.21-6.62-693.71-12.45-735.36,62.15-13.28,23.77,2.79,56.19,56.14,100.02-41.37-38.38-52.78-67.96-40.07-90.7,43.1-77.18,368.97-71.34,739.75-64.69,374.68,6.72,795.37,14.26,1014.45-61.37,115.39-39.83,174.5-102.84,140.47-201.39-35.75-103.57-12.28-182.48,51.63-235.13,56.21-46.31,143.77-72.16,249.72-76.46,85.01-3.46,181.95,6.94,284.12,31.72v5.07c-102.13-24.87-199.02-35.31-283.92-31.86-104.9,4.27-191.43,29.73-246.79,75.33-62.27,51.3-85.09,128.38-50.1,229.72,35.19,101.92-25.26,166.83-143.52,207.65-219.91,75.92-641.06,68.37-1016.13,61.64-369.22-6.62-693.71-12.45-735.37,62.16-13.27,23.77,2.8,56.19,56.15,100.02-41.37-38.38-52.78-67.95-40.08-90.71,43.1-77.18,368.96-71.34,739.75-64.69,374.67,6.72,795.37,14.26,1014.44-61.37,115.39-39.83,174.5-102.83,140.47-201.39-35.76-103.57-12.28-182.47,51.63-235.13,56.21-46.31,143.76-72.15,249.72-76.46,79.33-3.23,169.05,5.61,263.73,26.95v5.05c-94.63-21.41-184.3-30.29-263.54-27.07-104.9,4.26-191.43,29.73-246.79,75.33-62.27,51.3-85.08,128.38-50.09,229.72,35.19,101.92-25.26,166.84-143.52,207.66-219.92,75.92-641.07,68.36-1016.14,61.64-369.21-6.62-693.7-12.44-735.36,62.16-13.27,23.77,2.79,56.19,56.15,100.02-41.37-38.38-52.77-67.96-40.07-90.71,43.09-77.18,368.96-71.34,739.75-64.68,374.67,6.71,795.36,14.26,1014.44-61.38,115.4-39.83,174.5-102.83,140.48-201.38-35.76-103.57-12.28-182.48,51.63-235.14,56.21-46.31,143.76-72.15,249.72-76.46,73.61-3,156.19,4.41,243.35,22.54v5.03c-87.12-18.19-169.64-25.62-243.15-22.64-104.91,4.26-191.44,29.73-246.8,75.33-62.27,51.3-85.08,128.37-50.1,229.72,35.19,101.91-25.26,166.83-143.52,207.65-219.92,75.92-641.06,68.36-1016.13,61.64-369.21-6.63-693.71-12.44-735.36,62.15-13.28,23.77,2.79,56.19,56.14,100.02-41.37-38.38-52.78-67.96-40.07-90.7,43.1-77.18,368.97-71.34,739.75-64.69,374.67,6.71,795.37,14.26,1014.45-61.38,115.39-39.83,174.5-102.83,140.47-201.38-35.75-103.57-12.28-182.48,51.63-235.13,56.21-46.32,143.77-72.16,249.72-76.46,67.86-2.75,143.32,3.31,222.97,18.48v5.01c-79.61-15.21-155.01-21.31-222.77-18.56-104.9,4.26-191.43,29.73-246.8,75.34-62.27,51.3-85.08,128.37-50.09,229.72,35.19,101.91-25.26,166.83-143.52,207.65-219.91,75.92-641.07,68.37-1016.13,61.64-369.22-6.62-693.71-12.45-735.37,62.15-13.27,23.77,2.8,56.19,56.15,100.02-41.37-38.38-52.78-67.96-40.07-90.7,43.1-77.18,368.96-71.34,739.75-64.69,374.67,6.72,795.36,14.26,1014.44-61.37,115.39-39.83,174.5-102.84,140.47-201.39-35.76-103.57-12.28-182.48,51.63-235.13,56.21-46.31,143.76-72.16,249.72-76.46,62.04-2.53,130.43,2.33,202.58,14.77v5.01c-72.1-12.48-140.43-17.37-202.39-14.85-104.91,4.27-191.44,29.73-246.79,75.33-62.27,51.3-85.08,128.38-50.09,229.72,35.19,101.92-25.26,166.83-143.52,207.65-219.92,75.92-641.07,68.37-1016.14,61.64-369.21-6.62-693.71-12.45-735.36,62.16-13.28,23.77,2.79,56.19,56.15,100.02-41.37-38.38-52.77-67.96-40.07-90.71,43.09-77.18,368.96-71.34,739.74-64.69,374.68,6.72,795.37,14.26,1014.45-61.37,115.4-39.83,174.5-102.83,140.48-201.39-35.76-103.57-12.28-182.47,51.62-235.13,56.21-46.31,143.77-72.15,249.73-76.46,56.16-2.29,117.53,1.47,182.2,11.44v4.98c-64.6-10-125.92-13.78-182.01-11.49-104.9,4.26-191.43,29.73-246.79,75.33-62.27,51.3-85.08,128.38-50.1,229.72,35.19,101.92-25.26,166.84-143.52,207.66-219.92,75.92-641.06,68.36-1016.13,61.64-369.22-6.62-693.71-12.44-735.37,62.16-13.27,23.77,2.8,56.19,56.15,100.02-41.37-38.38-52.78-67.96-40.07-90.71,43.1-77.18,368.96-71.34,739.75-64.68,374.67,6.71,795.37,14.26,1014.45-61.38,115.39-39.83,174.5-102.83,140.47-201.38-35.76-103.57-12.28-182.48,51.63-235.13,56.21-46.31,143.77-72.15,249.72-76.46,50.23-2.04,104.63.76,161.82,8.5v4.97c-57.13-7.76-111.47-10.57-161.62-8.54-104.9,4.26-191.43,29.73-246.8,75.34-62.27,51.3-85.08,128.37-50.09,229.72,35.19,101.91-25.26,166.83-143.52,207.65-219.91,75.92-641.07,68.36-1016.13,61.64-369.22-6.63-693.71-12.45-735.37,62.15-13.27,23.77,2.79,56.19,56.14,100.02-41.37-38.38-52.77-67.96-40.07-90.7,43.09-77.18,368.96-71.34,739.75-64.69,374.67,6.71,795.36,14.26,1014.44-61.38,115.39-39.83,174.5-102.83,140.47-201.38-35.76-103.57-12.28-182.48,51.63-235.13,56.21-46.32,143.77-72.16,249.72-76.46,44.22-1.79,91.68.16,141.43,5.94v4.96c-49.69-5.8-97.08-7.76-141.24-5.97-104.9,4.26-191.44,29.73-246.79,75.33-62.27,51.3-85.08,128.38-50.1,229.72,35.19,101.91-25.26,166.83-143.52,207.65-219.91,75.92-641.06,68.37-1016.13,61.64-369.21-6.62-693.71-12.45-735.36,62.15-13.27,23.77,2.79,56.19,56.15,100.01-41.37-38.38-52.78-67.95-40.08-90.7,43.1-77.18,368.97-71.34,739.75-64.69,374.68,6.72,795.37,14.26,1014.44-61.37,115.39-39.83,174.5-102.84,140.47-201.39-35.75-103.57-12.28-182.48,51.63-235.13,56.21-46.31,143.77-72.16,249.72-76.46,38.15-1.56,78.7-.31,121.05,3.76v4.97c-42.29-4.09-82.78-5.35-120.86-3.8-104.9,4.27-191.43,29.73-246.79,75.33-62.27,51.3-85.09,128.38-50.1,229.72,35.19,101.92-25.26,166.83-143.52,207.65-219.92,75.92-641.06,68.37-1016.13,61.64-369.22-6.62-693.71-12.45-735.37,62.16-13.26,23.77,2.8,56.19,56.15,100.02-41.37-38.39-52.78-67.96-40.07-90.71,43.1-77.18,368.96-71.34,739.75-64.69,374.67,6.72,795.37,14.26,1014.45-61.37,115.39-39.83,174.5-102.83,140.47-201.39-35.76-103.57-12.28-182.47,51.63-235.13,56.21-46.31,143.76-72.15,249.72-76.46,31.99-1.3,65.66-.63,100.66,2.02v4.94c-34.95-2.65-68.56-3.32-100.47-2.02-104.9,4.26-191.43,29.73-246.8,75.33-62.27,51.3-85.08,128.38-50.09,229.72,35.19,101.92-25.26,166.83-143.52,207.66-219.91,75.92-641.07,68.36-1016.14,61.64-369.21-6.62-693.7-12.44-735.36,62.16-13.27,23.77,2.78,56.19,56.14,100.02-41.37-38.38-52.77-67.96-40.07-90.71,43.09-77.18,368.96-71.34,739.75-64.68,374.67,6.71,795.36,14.26,1014.44-61.38,115.39-39.83,174.5-102.83,140.47-201.38-35.76-103.57-12.28-182.48,51.63-235.13,56.21-46.31,143.77-72.15,249.72-76.46,25.73-1.04,52.55-.83,80.28.69v4.94c-27.67-1.52-54.42-1.74-80.09-.7-104.9,4.26-191.43,29.73-246.79,75.34-62.27,51.3-85.08,128.37-50.1,229.72,35.19,101.91-25.26,166.83-143.52,207.65-219.91,75.92-641.06,68.36-1016.13,61.64-369.22-6.63-693.71-12.45-735.36,62.15-13.28,23.77,2.79,56.19,56.15,100.02-41.38-38.37-52.78-67.96-40.08-90.7,43.1-77.18,368.96-71.34,739.75-64.69,374.67,6.72,795.37,14.26,1014.44-61.37,115.39-39.83,174.5-102.83,140.47-201.38-35.75-103.57-12.28-182.48,51.63-235.13,56.21-46.32,143.77-72.16,249.72-76.46,19.37-.79,39.37-.85,59.9-.19v4.92c-20.47-.65-40.4-.59-59.71.2-104.9,4.26-191.43,29.73-246.79,75.33-62.27,51.3-85.08,128.38-50.09,229.72,35.19,101.92-25.26,166.83-143.52,207.65-219.92,75.92-641.07,68.37-1016.13,61.64-369.22-6.62-693.71-12.45-735.37,62.15-20.64,36.97,29.64,94.86,180.84,184l3.9,2.18c5.59,3.12,10.98,6.31,16.42,9.49l3.96,2.22c5.58,3.11,10.97,6.32,16.42,9.49l3.96,2.22c455.08,254.14,668.87,613.03,764.8,940h-5.04c-71.55-242.99-208.52-503.55-461.72-725.27,247.45,223.05,380.6,483.39,449.7,725.27h-5.03c-70.57-246.32-207.75-511.69-465.06-736.98,251.46,226.66,384.83,491.8,452.95,736.98h-4.94c-69.55-249.59-207.01-519.83-468.38-748.7,255.47,230.28,389.08,500.28,456.19,748.7h-4.95c-68.5-252.84-206.17-527.96-471.62-760.4,259.49,233.9,393.26,508.79,459.31,760.4h-5c-67.39-256.03-205.13-536.07-474.7-772.11,263.53,237.54,397.36,517.33,462.32,772.11h-4.93c-66.26-259.17-204.1-544.17-477.78-783.82,267.56,241.17,401.5,525.94,465.32,783.82h-4.99c-65.08-262.27-202.91-552.27-480.71-795.54,271.63,244.84,405.48,534.58,468.13,795.54h-4.96c-63.86-265.33-201.6-560.35-483.55-807.24,275.69,248.51,409.46,543.27,470.89,807.24h-4.89c-62.6-268.32-200.3-568.43-486.39-818.95,279.77,252.19,413.43,552.01,473.62,818.95h-4.98c-61.31-271.28-198.75-576.48-489.02-830.66,283.87,255.88,417.28,560.8,476.17,830.66h-4.92c-59.98-274.18-197.17-584.53-491.63-842.37,287.98,259.59,421.15,569.66,478.72,842.37h-4.93c-58.62-277.02-195.53-592.56-494.18-854.08,292.12,263.31,424.92,578.56,481.13,854.08h-4.94c-57.22-279.82-193.7-600.57-496.58-865.79,296.26,267.05,428.66,587.53,483.47,865.79h-4.88c-55.79-282.54-191.87-608.58-498.97-877.5,300.42,270.79,432.39,596.55,485.79,877.5h-4.96c-54.32-285.22-189.85-616.56-501.21-889.21,304.62,274.58,435.98,605.62,487.91,889.21h-4.9c-52.82-287.82-187.77-624.54-503.4-900.92,308.81,278.36,439.6,614.77,490.04,900.92h-4.87c-51.3-290.37-185.64-632.49-505.56-912.63,313.03,282.17,443.15,623.98,492.07,912.63h-4.92c-49.73-292.85-183.31-640.42-507.54-924.34,317.29,286,446.62,633.25,494,924.34h-4.86c-48.15-295.26-180.96-648.34-509.51-936.05,321.54,289.83,450.12,642.62,495.91,936.05h-4.92c-46.54-297.6-178.46-656.23-511.37-947.76,325.84,293.71,453.48,652.03,497.66,947.76h-4.89c-44.88-299.86-175.85-664.1-513.15-959.47,330.15,297.6,456.83,661.53,499.38,959.47h-4.84c-43.22-302.04-173.23-671.97-514.91-971.18,334.49,301.51,460.13,671.1,501.02,971.18h-4.9c-41.51-304.15-170.37-679.79-516.51-982.89,338.86,305.45,463.36,680.76,502.56,982.89h-4.85c-39.8-306.18-167.5-687.6-518.09-994.6,343.23,309.39,466.6,690.5,504.09,994.6h-4.9c-38.05-308.11-164.5-695.38-519.57-1006.31,347.67,313.38,469.69,700.32,505.45,1006.31h-4.86c-36.27-309.98-161.38-703.14-520.97-1018.01,352.12,317.39,472.81,710.24,506.8,1018.01h-4.84c-34.49-311.73-158.22-710.88-522.34-1029.73,356.6,321.44,475.83,720.26,508.05,1029.73h-4.87c-32.68-313.4-154.85-718.56-523.56-1041.44,361.12,325.51,478.8,730.38,509.22,1041.44h-4.84c-30.84-314.97-151.47-726.25-524.77-1053.15,365.66,329.6,481.76,740.6,510.36,1053.15h-4.88c-28.98-316.43-147.9-733.89-525.86-1064.85,370.26,333.74,484.61,750.9,511.36,1064.85h-4.84c-27.12-317.79-144.26-741.5-526.9-1076.57,374.86,337.9,487.46,761.34,512.37,1076.57h-4.88c-25.22-319.03-140.52-749.08-527.87-1088.28,379.54,342.12,490.18,771.88,513.21,1088.28h-4.86c-23.31-320.16-136.62-756.62-528.74-1099.98,384.24,346.34,492.91,782.55,514.05,1099.98h-4.83c-21.41-321.16-132.69-764.13-529.61-1111.69,388.99,350.62,495.54,793.34,514.79,1111.69h-4.86c-19.47-322.04-128.54-771.58-530.31-1123.41,393.78,354.96,498.12,804.27,515.46,1123.41h-4.82c-17.53-322.78-124.36-779.03-531.03-1135.12,398.62,359.31,500.66,815.33,516.07,1135.12h-4.87c-15.57-323.38-119.97-786.38-531.59-1146.82,403.53,363.73,503.11,826.53,516.59,1146.82h-4.83c-13.61-323.83-115.52-793.74-532.13-1158.53,408.44,368.16,505.52,837.89,517.07,1158.53h-4.88c-11.65-324.14-110.92-801.01-532.58-1170.25,413.47,372.7,507.85,849.42,517.43,1170.25h-4.83Z"/>
</svg>